<?xml version="1.0" encoding="UTF-8" standalone="no"?>
<!-- Created with Inkscape (http://www.inkscape.org/) -->

<svg
   width="7.3116055in"
   height="6.1957922in"
   viewBox="0 0 7.3116055 6.1957922"
   version="1.1"
   id="svg1"
   xml:space="preserve"
   inkscape:version="1.4.1 (93de688d07, 2025-03-30)"
   sodipodi:docname="drawing.svg"
   xmlns:inkscape="http://www.inkscape.org/namespaces/inkscape"
   xmlns:sodipodi="http://sodipodi.sourceforge.net/DTD/sodipodi-0.dtd"
   xmlns="http://www.w3.org/2000/svg"
   xmlns:svg="http://www.w3.org/2000/svg"><sodipodi:namedview
     id="namedview1"
     pagecolor="#ffffff"
     bordercolor="#000000"
     borderopacity="0.25"
     inkscape:showpageshadow="false"
     inkscape:pageopacity="0.0"
     inkscape:pagecheckerboard="0"
     inkscape:deskcolor="#d1d1d1"
     inkscape:document-units="px"
     showgrid="false"
     inkscape:zoom="0.51998007"
     inkscape:cx="168.27568"
     inkscape:cy="55.771368"
     inkscape:window-width="1920"
     inkscape:window-height="1053"
     inkscape:window-x="0"
     inkscape:window-y="0"
     inkscape:window-maximized="1"
     inkscape:current-layer="layer1"><inkscape:grid
       type="axonomgrid"
       id="grid1"
       units="mm"
       originx="-0.49251514"
       originy="-2.0879026"
       spacingx="3.7795276"
       spacingy="0.039370079"
       empcolor="#0099e5"
       empopacity="0.30196078"
       color="#0099e5"
       opacity="0.14902"
       empspacing="10"
       dotted="false"
       gridanglex="20"
       gridanglez="40"
       enabled="true"
       visible="false" /></sodipodi:namedview><defs
     id="defs1"><inkscape:path-effect
   effect="fillet_chamfer"
   id="path-effect678"
   is_visible="true"
   lpeversion="1"
   nodesatellites_param="F,0,0,1,0,0,0,1 @ F,0,0,1,0,0.15625,0,1 @ F,0,0,1,0,0.15625,0,1 @ F,0,0,1,0,0.15625,0,1 @ F,0,0,1,0,0,0,1"
   radius="15"
   unit="px"
   method="auto"
   mode="F"
   chamfer_steps="1"
   flexible="false"
   use_knot_distance="true"
   apply_no_radius="true"
   apply_with_radius="true"
   only_selected="false"
   hide_knots="false" /><inkscape:path-effect
   effect="fillet_chamfer"
   id="path-effect677"
   is_visible="true"
   lpeversion="1"
   nodesatellites_param="F,0,0,1,0,0,0,1 @ F,0,0,1,0,0.15625,0,1 @ F,0,0,1,0,0.15625,0,1 @ F,0,0,1,0,0,0,1"
   radius="15"
   unit="px"
   method="auto"
   mode="F"
   chamfer_steps="1"
   flexible="false"
   use_knot_distance="true"
   apply_no_radius="true"
   apply_with_radius="true"
   only_selected="false"
   hide_knots="false" /><inkscape:path-effect
   effect="fillet_chamfer"
   id="path-effect676"
   is_visible="true"
   lpeversion="1"
   nodesatellites_param="F,0,0,1,0,0,0,1 @ F,0,0,1,0,0.15625,0,1 @ F,0,0,1,0,0.15625,0,1 @ F,0,0,1,0,0.15625,0,1 @ F,0,0,1,0,0,0,1"
   radius="15"
   unit="px"
   method="auto"
   mode="F"
   chamfer_steps="1"
   flexible="false"
   use_knot_distance="true"
   apply_no_radius="true"
   apply_with_radius="true"
   only_selected="false"
   hide_knots="false" /><inkscape:path-effect
   effect="fillet_chamfer"
   id="path-effect674"
   is_visible="true"
   lpeversion="1"
   nodesatellites_param="F,0,0,1,0,0.010416667,0,1 @ F,0,0,1,0,0.010416667,0,1 @ F,0,0,1,0,0.010416667,0,1 @ F,0,0,1,0,0.010416667,0,1 @ F,0,0,1,0,0.010416667,0,1 @ F,0,0,1,0,0.010416667,0,1 @ F,0,0,1,0,0.010416667,0,1 @ F,0,0,1,0,0.010416667,0,1 @ F,0,0,1,0,0.010416667,0,1 @ F,0,0,1,0,0.010416667,0,1 @ F,0,0,1,0,0.010416667,0,1 @ F,0,0,1,0,0.010416667,0,1 @ F,0,0,1,0,0.010416667,0,1 @ F,0,0,1,0,0.010416667,0,1 @ F,0,0,1,0,0.010416667,0,1 @ F,0,0,1,0,0.010416667,0,1 @ F,0,0,1,0,0.010416667,0,1 @ F,0,0,1,0,0.010416667,0,1 @ F,0,0,1,0,0.010416667,0,1 @ F,0,0,1,0,0.010416667,0,1 @ F,0,0,1,0,0.010416667,0,1 @ F,0,0,1,0,0.010416667,0,1 @ F,0,0,1,0,0.010416667,0,1 @ F,0,0,1,0,0.010416667,0,1 @ F,0,0,1,0,0.010416667,0,1 @ F,0,0,1,0,0.010416667,0,1 @ F,0,0,1,0,0.010416667,0,1 @ F,0,0,1,0,0.010416667,0,1 @ F,0,0,1,0,0.010416667,0,1 @ F,0,0,1,0,0.010416667,0,1 @ F,0,0,1,0,0.010416667,0,1"
   radius="1"
   unit="px"
   method="auto"
   mode="F"
   chamfer_steps="1"
   flexible="false"
   use_knot_distance="true"
   apply_no_radius="true"
   apply_with_radius="true"
   only_selected="false"
   hide_knots="false" /><inkscape:path-effect
   effect="fillet_chamfer"
   id="path-effect672"
   is_visible="true"
   lpeversion="1"
   nodesatellites_param="F,0,0,1,0,0.010416667,0,1 @ F,0,0,1,0,0.010416667,0,1 @ F,0,0,1,0,0.010416667,0,1 @ F,0,0,1,0,0.010416667,0,1 @ F,0,0,1,0,0.010416667,0,1 @ F,0,0,1,0,0.010416667,0,1 @ F,0,0,1,0,0.010416667,0,1 @ F,0,0,1,0,0.010416667,0,1 @ F,0,0,1,0,0.010416667,0,1 @ F,0,0,1,0,0.010416667,0,1 @ F,0,0,1,0,0.010416667,0,1 @ F,0,0,1,0,0.010416667,0,1 @ F,0,0,1,0,0.010416667,0,1 @ F,0,0,1,0,0.010416667,0,1 @ F,0,0,1,0,0.010416667,0,1 @ F,0,0,1,0,0.010416667,0,1 @ F,0,0,1,0,0.010416667,0,1 @ F,0,0,1,0,0.010416667,0,1 @ F,0,0,1,0,0.010416667,0,1 @ F,0,0,1,0,0.010416667,0,1 @ F,0,0,1,0,0.010416667,0,1 @ F,0,0,1,0,0.010416667,0,1 @ F,0,0,1,0,0.010416667,0,1 @ F,0,0,1,0,0.010416667,0,1 @ F,0,0,1,0,0.010416667,0,1 @ F,0,0,1,0,0.010416667,0,1 @ F,0,0,1,0,0.010416667,0,1 @ F,0,0,1,0,0.010416667,0,1 @ F,0,0,1,0,0.010416667,0,1 @ F,0,0,1,0,0.010416667,0,1 @ F,0,0,1,0,0.010416667,0,1"
   radius="1"
   unit="px"
   method="auto"
   mode="F"
   chamfer_steps="1"
   flexible="false"
   use_knot_distance="true"
   apply_no_radius="true"
   apply_with_radius="true"
   only_selected="false"
   hide_knots="false" /><inkscape:path-effect
   effect="fillet_chamfer"
   id="path-effect666"
   is_visible="true"
   lpeversion="1"
   nodesatellites_param="F,0,0,1,0,0.09375,0,1 @ F,0,0,1,0,0.09375,0,1 @ F,0,0,1,0,0.09375,0,1 @ F,0,0,1,0,0.09375,0,1"
   radius="9"
   unit="px"
   method="auto"
   mode="F"
   chamfer_steps="1"
   flexible="false"
   use_knot_distance="true"
   apply_no_radius="true"
   apply_with_radius="true"
   only_selected="false"
   hide_knots="false" /><inkscape:path-effect
   effect="fillet_chamfer"
   id="path-effect665"
   is_visible="true"
   lpeversion="1"
   nodesatellites_param="F,0,0,1,0,0.21875,0,1 @ F,0,0,1,0,0.21875,0,1 @ F,0,0,1,0,0.21875,0,1 @ F,0,0,1,0,0.21875,0,1"
   radius="21"
   unit="px"
   method="auto"
   mode="F"
   chamfer_steps="1"
   flexible="false"
   use_knot_distance="true"
   apply_no_radius="true"
   apply_with_radius="true"
   only_selected="false"
   hide_knots="false" /><style
   id="style1">
      .st0 {
        font-size: 2.8px;
      }

      .st0, .st1, .st2, .st3, .st4, .st5, .st6, .st7, .st8, .st9, .st10, .st11, .st12 {
        fill: #fff;
      }

      .st0, .st1, .st2, .st4, .st13, .st14, .st5, .st15, .st16, .st6, .st7, .st17, .st8, .st9, .st18, .st10, .st19, .st20, .st21, .st11, .st12 {
        isolation: isolate;
      }

      .st0, .st1, .st5, .st6, .st7, .st9, .st12 {
        font-family: ArialMT, Arial;
      }

      .st1 {
        font-size: 4.7px;
      }

      .st22 {
        fill: #80795b;
      }

      .st23 {
        fill: #d1c690;
      }

      .st24 {
        fill: #5e5b43;
      }

      .st2 {
        opacity: .6;
      }

      .st25 {
        stroke-width: .9px;
      }

      .st25, .st26, .st27, .st28, .st20, .st29 {
        fill: none;
      }

      .st25, .st27, .st28, .st29 {
        stroke-miterlimit: 5;
      }

      .st25, .st28 {
        stroke: #fff;
      }

      .st30 {
        fill-opacity: .3;
      }

      .st30, .st31 {
        fill: #3d3d3d;
      }

      .st32 {
        fill: #494949;
      }

      .st33 {
        fill: lime;
      }

      .st33, .st34 {
        fill-opacity: .4;
      }

      .st35 {
        fill: #22b573;
        fill-opacity: .7;
      }

      .st36 {
        fill: #b8af82;
      }

      .st37 {
        fill: #303030;
      }

      .st38 {
        fill: #0f7391;
      }

      .st4 {
        opacity: .3;
      }

      .st13 {
        stroke: #565656;
      }

      .st13, .st14 {
        opacity: .2;
      }

      .st13, .st20 {
        stroke-miterlimit: 12.5;
        stroke-width: .3px;
      }

      .st39, .st21 {
        fill: #f2f2f2;
      }

      .st40 {
        fill: #404040;
      }

      .st5 {
        font-size: 5.8px;
      }

      .st41 {
        fill: #1f1f1f;
      }

      .st16, .st11 {
        opacity: .1;
      }

      .st6 {
        font-size: 7.7px;
      }

      .st42 {
        fill: #373737;
      }

      .st7 {
        font-size: 5.2px;
      }

      .st17 {
        opacity: 0;
      }

      .st43 {
        fill: #8c8663;
      }

      .st8, .st19, .st20, .st21 {
        opacity: .5;
      }

      .st34 {
        fill: #ff0;
      }

      .st27 {
        stroke-width: 1px;
      }

      .st27, .st29 {
        stroke: #9a916c;
      }

      .st9 {
        font-size: 4.2px;
      }

      .st44 {
        fill: #6d6d6d;
      }

      .st45 {
        fill: #333;
      }

      .st46 {
        fill: #474747;
      }

      .st47 {
        fill: #8d8455;
      }

      .st48 {
        fill: #595959;
      }

      .st49 {
        fill: #1a1a1a;
      }

      .st50 {
        fill: #9a916c;
      }

      .st51 {
        fill: #999;
      }

      .st18, .st10 {
        opacity: .2;
      }

      .st52 {
        fill: #232323;
      }

      .st53 {
        fill: #852725;
      }

      .st54 {
        fill: #641d1c;
      }

      .st55, .st19 {
        fill: #ccc;
      }

      .st56 {
        fill: #b3b3b3;
      }

      .st28 {
        stroke-linecap: round;
        stroke-width: 1.1px;
      }

      .st57 {
        fill: #2a2a29;
      }

      .st58 {
        fill: gray;
      }

      .st59 {
        fill: #8d8c8c;
      }

      .st60 {
        fill: #9d956c;
      }

      .st20 {
        stroke: #000;
      }

      .st61 {
        fill: #0f0f0f;
        fill-opacity: .4;
      }

      .st29 {
        stroke-width: 1.1px;
      }

      .st62 {
        fill: #e6e6e6;
      }

      .st12 {
        font-size: 4.6px;
      }
    </style>























































<clipPath
   clipPathUnits="userSpaceOnUse"
   id="clipPath645"><path
     d="M -1.5682968,18.351197 H 2.4227007 V 1.9662608e-4 h -3.9909975 z"
     id="path645"
     inkscape:connector-curvature="0"
     style="stroke-width:0.999998" /></clipPath><clipPath
   clipPathUnits="userSpaceOnUse"
   id="clipPath646"><path
     d="M -8.9458018,3.0171548e-4 H 1.9822466e-4 V -17.404701 H -8.9458018 Z"
     id="path646"
     inkscape:connector-curvature="0"
     style="stroke-width:0.999998" /></clipPath><clipPath
   clipPathUnits="userSpaceOnUse"
   id="clipPath647"><path
     d="M -1.967777e-4,3.6635966 H 7.3168033 V -4.0087155e-4 H -1.967777e-4 Z"
     id="path647"
     inkscape:connector-curvature="0"
     style="stroke-width:0.999998" /></clipPath><clipPath
   clipPathUnits="userSpaceOnUse"
   id="clipPath648"><path
     d="M -7.0880968,13.740502 H 1.8439008 V -5.0335323e-4 h -8.9319976 z"
     id="path648"
     inkscape:connector-curvature="0"
     style="stroke-width:0.999998" /></clipPath><clipPath
   clipPathUnits="userSpaceOnUse"
   id="clipPath649"><path
     d="M -18.351099,2.4231214 H -9.9182986e-5 v -3.99105 H -18.351099 Z"
     id="path649"
     inkscape:connector-curvature="0"
     style="stroke-width:0.999998" /></clipPath><clipPath
   clipPathUnits="userSpaceOnUse"
   id="clipPath650"><path
     d="M -9.6772378e-5,-5.0352573e-4 H 17.404898 V -8.9465036 H -9.6772378e-5 Z"
     id="path650"
     inkscape:connector-curvature="0"
     style="stroke-width:0.999998" /></clipPath><clipPath
   clipPathUnits="userSpaceOnUse"
   id="clipPath651"><path
     d="M -3.6638992,7.3170715 H 9.8314649e-5 V 7.14719e-5 H -3.6638992 Z"
     id="path651"
     inkscape:connector-curvature="0"
     style="stroke-width:0.999998" /></clipPath>






















































<clipPath
   clipPathUnits="userSpaceOnUse"
   id="clipPath652"><path
     d="M -13.740797,1.8442215 H 2.0079633e-4 v -8.93205 H -13.740797 Z"
     id="path652"
     inkscape:connector-curvature="0"
     style="stroke-width:0.999998" /></clipPath>

































































<inkscape:path-effect
   effect="fillet_chamfer"
   id="path-effect665-8"
   is_visible="true"
   lpeversion="1"
   nodesatellites_param="F,0,0,1,0,0.21875,0,1 @ F,0,0,1,0,0.21875,0,1 @ F,0,0,1,0,0.21875,0,1 @ F,0,0,1,0,0.21875,0,1"
   radius="21"
   unit="px"
   method="auto"
   mode="F"
   chamfer_steps="1"
   flexible="false"
   use_knot_distance="true"
   apply_no_radius="true"
   apply_with_radius="true"
   only_selected="false"
   hide_knots="false" /><inkscape:path-effect
   effect="fillet_chamfer"
   id="path-effect666-8"
   is_visible="true"
   lpeversion="1"
   nodesatellites_param="F,0,0,1,0,0.09375,0,1 @ F,0,0,1,0,0.09375,0,1 @ F,0,0,1,0,0.09375,0,1 @ F,0,0,1,0,0.09375,0,1"
   radius="9"
   unit="px"
   method="auto"
   mode="F"
   chamfer_steps="1"
   flexible="false"
   use_knot_distance="true"
   apply_no_radius="true"
   apply_with_radius="true"
   only_selected="false"
   hide_knots="false" /></defs><g
     inkscape:groupmode="layer"
     id="layer2"
     inkscape:label="Layer 2"
     transform="translate(-0.49251513,-2.0879025)"><g
       id="g676"
       transform="translate(-0.04166666,0.89583331)"><path
         style="fill:none;fill-opacity:1;stroke:#ff711e;stroke-width:0.0208333;stroke-linecap:round;stroke-linejoin:bevel;stroke-dasharray:none;stroke-dashoffset:0;stroke-opacity:1"
         d="M 2.1191083,4.8364645 2.7746409,4.2864074 a 0.26977,0.26977 170.0793 0 1 0.2663729,-0.046589 l 0.6858298,0.2517736 a 0.26977004,0.26977004 170.0793 0 0 0.266373,-0.046589 L 4.6173891,3.9212608 4.7370836,3.8208252"
         id="path667"
         inkscape:path-effect="#path-effect676"
         inkscape:original-d="m 2.1191083,4.8364645 0.775227,-0.6504927 0.9791868,0.3594674 0.8635615,-0.724614 v 0" /><path
         style="fill:none;fill-opacity:1;stroke:#ff711e;stroke-width:0.0208333;stroke-linecap:round;stroke-linejoin:bevel;stroke-dasharray:none;stroke-dashoffset:0;stroke-opacity:1"
         d="M 1.9634816,4.6516579 2.4982809,4.2029081 A 0.09021097,0.09021097 80.000003 0 0 2.4711484,4.0490318 L 0.80132081,3.4412643 A 0.09021098,0.09021098 80 0 1 0.77418828,3.287388 L 1.8496737,2.3849486"
         id="path675"
         inkscape:path-effect="#path-effect677"
         inkscape:original-d="M 1.9634816,4.6516579 2.6179754,4.1024725 0.65449384,3.3878236 1.8496737,2.3849486" /><path
         style="fill:none;fill-opacity:1;stroke:#ff711e;stroke-width:0.0208333;stroke-linecap:round;stroke-linejoin:bevel;stroke-dasharray:none;stroke-dashoffset:0;stroke-opacity:1"
         d="M 3.2724693,5.9154923 2.625472,5.6800046 A 0.08927099,0.08927099 80.259182 0 1 2.5992432,5.5272154 L 3.0209723,5.1797959 A 0.089271,0.089271 80.259186 0 0 2.9947435,5.0270067 L 2.6339036,4.8956716 2.4870766,4.842231"
         id="path676"
         inkscape:path-effect="#path-effect678"
         inkscape:original-d="M 3.2724693,5.9154923 2.478645,5.626564 3.1415705,5.0804473 2.4870766,4.842231 v 0" /></g></g><g
     inkscape:label="Layer 1"
     inkscape:groupmode="layer"
     id="layer1"
     style="display:inline"
     transform="translate(-0.49251513,-2.0879025)"><g
       id="g664"
       style="fill:#ffffff;fill-opacity:1"
       transform="translate(0.06249999,0.89583331)"><path
         id="path11835"
         style="fill:#ff711e;fill-opacity:1;fill-rule:nonzero;stroke:#ff711e;stroke-width:0.0208333;stroke-dasharray:none;stroke-opacity:1"
         d="m 2.7819003,6.6749484 c -0.02444,0.02046 -0.02035,0.04577 0.00913,0.05654 0.02948,0.01078 0.07319,0.00292 0.09763,-0.01753 l 1.3e-4,-1.1e-4 c 0.02444,-0.02045 0.02036,-0.04577 -0.00913,-0.05654 -0.02948,-0.01077 -0.07319,-0.00292 -0.09763,0.01753 z m 1.37478,-1.10255 c -0.02443,0.02045 -0.02035,0.04578 0.00914,0.05655 0.02948,0.01077 0.07318,0.00292 0.09763,-0.01754 l 1.2e-4,-10e-5 c 0.02445,-0.02046 0.02036,-0.04578 -0.00913,-0.05654 -0.02948,-0.01078 -0.0732,-0.00293 -0.09763,0.01753 z m 0.50473,1.6179 c -0.02444,0.02046 -0.02037,0.04578 0.00911,0.05655 0.02948,0.01078 0.07318,0.00293 0.09762,-0.01751 l 1.6e-4,-1.3e-4 c 0.02444,-0.02046 0.02037,-0.04577 -0.00909,-0.05655 -0.02949,-0.01077 -0.07319,-0.00294 -0.09765,0.01751 z m 0.77137,-0.64725 c -0.02445,0.02046 -0.02037,0.04577 0.00911,0.05655 0.02946,0.01078 0.07317,0.00293 0.09763,-0.01752 l 1.5e-4,-1.3e-4 c 0.02444,-0.02045 0.02036,-0.04577 -0.0091,-0.05654 -0.02947,-0.01078 -0.07318,-0.00294 -0.09764,0.01751 z m 0.18667,-0.09235 0.01472,0.08972 -0.90461,0.75906 -0.15496,0.02796 -0.04251,0.03567 c -0.01526,0.0128 -0.04256,0.01773 -0.06101,0.01101 h -10e-6 l -1.34527,-0.48964 -0.00515,-0.0314 -0.16545,-0.06022 -0.05422,0.00979 -0.56899,-0.20709 c -0.01844,-0.00671 -0.02104,-0.02253 -0.00579,-0.03533 l 1.4174,-1.18933 c 0.01524,-0.01279 0.04256,-0.01772 0.06101,-0.01101 l 2.12158,0.7722 0.00882,0.05383 z" /><path
         id="path654"
         style="fill:#ffffff;fill-opacity:1;fill-rule:nonzero;stroke:#ff711e;stroke-width:0.0208333;stroke-dasharray:none;stroke-opacity:1"
         d="m 2.7819003,6.6212572 c -0.02444,0.02046 -0.02035,0.04577 0.00913,0.05654 0.02948,0.01078 0.07319,0.00292 0.09763,-0.01753 l 1.3e-4,-1.1e-4 c 0.02444,-0.02045 0.02036,-0.04577 -0.00913,-0.05654 -0.02948,-0.01077 -0.07319,-0.00292 -0.09763,0.01753 z m 1.37478,-1.10255 c -0.02443,0.02045 -0.02035,0.04578 0.00914,0.05655 0.02948,0.01077 0.07318,0.00292 0.09763,-0.01754 l 1.2e-4,-10e-5 c 0.02445,-0.02046 0.02036,-0.04578 -0.00913,-0.05654 -0.02948,-0.01078 -0.0732,-0.00293 -0.09763,0.01753 z m 0.50473,1.6179 c -0.02444,0.02046 -0.02037,0.04578 0.00911,0.05655 0.02948,0.01078 0.07318,0.00293 0.09762,-0.01751 l 1.6e-4,-1.3e-4 c 0.02444,-0.02046 0.02037,-0.04577 -0.00909,-0.05655 -0.02949,-0.01077 -0.07319,-0.00294 -0.09765,0.01751 z m 0.77137,-0.64725 c -0.02445,0.02046 -0.02037,0.04577 0.00911,0.05655 0.02946,0.01078 0.07317,0.00293 0.09763,-0.01752 l 1.5e-4,-1.3e-4 c 0.02444,-0.02045 0.02036,-0.04577 -0.0091,-0.05654 -0.02947,-0.01078 -0.07318,-0.00294 -0.09764,0.01751 z m 0.18667,-0.09235 0.01472,0.08972 -0.90461,0.75906 -0.15496,0.02796 -0.04251,0.03567 c -0.01526,0.0128 -0.04256,0.01773 -0.06101,0.01101 h -10e-6 l -1.34527,-0.48964 -0.00515,-0.0314 -0.16545,-0.06022 -0.05422,0.00979 -0.56899,-0.20709 c -0.01844,-0.00671 -0.02104,-0.02253 -0.00579,-0.03533 l 1.4174,-1.18933 c 0.01524,-0.01279 0.04256,-0.01772 0.06101,-0.01101 l 2.12158,0.7722 0.00882,0.05383 z" /><g
         id="g658"
         transform="matrix(1.0742808,0,0,1.0746556,0.31003203,1.3511082)"
         style="fill:#ffffff;fill-opacity:1;stroke-width:0.0193894;stroke-dasharray:none"><path
           id="path656"
           style="fill:#ffffff;fill-opacity:1;stroke:#ff711e;stroke-width:0.0193894;stroke-linecap:round;stroke-linejoin:bevel;stroke-dasharray:none;stroke-opacity:1"
           d="m 2.1598199,4.447541 c 0,-0.031324 -0.010343,-0.052683 -0.028756,-0.059385 -0.018407,-0.0067 -0.043378,0.00181 -0.069416,0.023651 -0.054213,0.045496 -0.098167,0.1352508 -0.098167,0.2004794 0,0.065229 0.043954,0.081224 0.098167,0.035734 0.026039,-0.021851 0.051009,-0.055245 0.069416,-0.092839 0.018413,-0.0376 0.028756,-0.076316 0.028756,-0.1076404 z" /><path
           style="fill:#ffffff;fill-opacity:1;stroke:#ff711e;stroke-width:0.0193894;stroke-linecap:round;stroke-linejoin:bevel;stroke-dasharray:none;stroke-dashoffset:0;stroke-opacity:1"
           d="M 1.9841349,4.6689319 2.2907321,4.7794173 2.4279182,4.4949172 2.1268453,4.3862732"
           id="path658"
           sodipodi:nodetypes="cccc" /><path
           id="path657"
           style="fill:#ffffff;fill-opacity:1;stroke:#ff711e;stroke-width:0.0193894;stroke-linecap:round;stroke-linejoin:bevel;stroke-dasharray:none;stroke-opacity:1"
           d="m 2.454342,4.5547383 c 0,-0.031324 -0.010343,-0.052683 -0.028756,-0.059385 -0.018407,-0.0067 -0.043378,0.00181 -0.069416,0.023651 -0.054213,0.045496 -0.098167,0.1352508 -0.098167,0.2004794 0,0.065229 0.043954,0.081224 0.098167,0.035734 0.026039,-0.021851 0.051009,-0.055245 0.069416,-0.092839 0.018413,-0.0376 0.028756,-0.076316 0.028756,-0.1076404 z" /></g><path
         style="fill:#ffffff;fill-opacity:1;stroke:#ff711e;stroke-width:0.0208333;stroke-linecap:round;stroke-linejoin:bevel;stroke-dasharray:none;stroke-dashoffset:0;stroke-opacity:1"
         d="M 3.0591746,6.276291 3.6154944,6.4787749 3.9427412,6.2041821 3.3864215,6.0016983 Z"
         id="path659" /><path
         style="fill:#ffffff;fill-opacity:1;stroke:#ff711e;stroke-width:0.0208333;stroke-linecap:round;stroke-linejoin:bevel;stroke-dasharray:none;stroke-dashoffset:0;stroke-opacity:1"
         d="M 3.0591746,6.2416298 3.6154944,6.4441137 3.9427412,6.1695209 3.3864215,5.9670371 Z"
         id="path659-2" /><g
         id="g662"
         transform="matrix(0.92593547,0,0,0.92545498,0.85428963,1.950355)"
         style="fill:#ffffff;fill-opacity:1;stroke-width:0.0225056;stroke-dasharray:none"><path
           id="rect659"
           style="fill:#ffffff;fill-opacity:1;stroke:#ff711e;stroke-width:0.0225056;stroke-linecap:round;stroke-linejoin:bevel;stroke-dasharray:none;stroke-opacity:1"
           d="m 2.6323041,3.9753808 0.21186,-0.1773 c 0.02187,-0.01829 0.03947,-0.00668 0.03947,0.02603 0,0.03272 -0.0176,0.07379 -0.03947,0.09208 l -0.21186,0.1773 c -0.02186,0.01829 -0.03946,0.00668 -0.03946,-0.02603 0,-0.03272 0.0176,-0.07379 0.03946,-0.09208 z" /><path
           style="fill:#ffffff;fill-opacity:1;stroke:#ff711e;stroke-width:0.0225056;stroke-linecap:round;stroke-linejoin:bevel;stroke-dasharray:none;stroke-dashoffset:0;stroke-opacity:1"
           d="m 2.602667,4.0969006 0.2580978,0.09394 0.261632,-0.3106309 -0.2539063,-0.091146"
           id="path662"
           sodipodi:nodetypes="cccc" /><path
           id="path661"
           style="fill:#ffffff;fill-opacity:1;stroke:#ff711e;stroke-width:0.0225056;stroke-linecap:round;stroke-linejoin:bevel;stroke-dasharray:none;stroke-opacity:1"
           d="m 2.8862104,4.0639225 0.21186,-0.1773 c 0.02187,-0.01829 0.03947,-0.00668 0.03947,0.02603 0,0.03272 -0.0176,0.07379 -0.03947,0.09208 l -0.21186,0.1773 c -0.02186,0.01829 -0.03946,0.00668 -0.03946,-0.02603 0,-0.03272 0.0176,-0.07379 0.03946,-0.09208 z" /></g><path
         style="fill:#ffffff;fill-opacity:1;stroke:#ff711e;stroke-width:0.0208333;stroke-linecap:round;stroke-linejoin:bevel;stroke-dasharray:none;stroke-dashoffset:0;stroke-opacity:1"
         d="M 4.7548662,7.049496 4.3294452,6.8946554 4.558518,6.7024405 4.9839391,6.8572812 Z"
         id="path664" /><path
         style="fill:#ffffff;fill-opacity:1;stroke:#ff711e;stroke-width:0.0208333;stroke-linecap:round;stroke-linejoin:bevel;stroke-dasharray:none;stroke-dashoffset:0;stroke-opacity:1"
         d="M 4.7548662,7.0182457 4.3294452,6.8634051 4.558518,6.6711902 4.9839391,6.8260309 Z"
         id="path663" /></g><g
       id="g665"
       transform="translate(0.06249999,0.89583331)"><path
         style="fill:#ff711e;fill-opacity:1;stroke:#ff711e;stroke-width:0.0208333;stroke-linecap:round;stroke-linejoin:bevel;stroke-dasharray:none;stroke-dashoffset:0;stroke-opacity:1"
         d="M 6.0580168,4.3655422 7.686354,2.9992052 A 0.12629537,0.12629537 80.000001 0 0 7.6483684,2.7837785 L 4.7870147,1.7423309 a 0.37888613,0.37888613 170 0 0 -0.37313,0.065793 L 2.7855476,3.1744607 a 0.12629537,0.12629537 80.000002 0 0 0.037986,0.2154267 l 2.8613536,1.0414477 a 0.37888611,0.37888611 170 0 0 0.37313,-0.065793 z"
         id="path665"
         inkscape:path-effect="#path-effect665"
         inkscape:original-d="M 5.8904446,4.506152 7.8539262,2.8585954 4.5814569,1.667514 2.6179754,3.3150705 Z" /><path
         style="fill:#ffffff;stroke:#ff711e;stroke-width:0.0208333;stroke-linecap:round;stroke-linejoin:bevel;stroke-dasharray:none;stroke-dashoffset:0;stroke-opacity:1"
         d="M 6.0580168,4.3655422 7.686354,2.9992052 A 0.12629537,0.12629537 80.000001 0 0 7.6483684,2.7837785 L 4.7870147,1.7423309 a 0.37888613,0.37888613 170 0 0 -0.37313,0.065793 L 2.7855476,3.1744607 a 0.12629537,0.12629537 80.000002 0 0 0.037986,0.2154267 l 2.8613536,1.0414477 a 0.37888611,0.37888611 170 0 0 0.37313,-0.065793 z"
         id="path665-2"
         inkscape:path-effect="#path-effect665-8"
         inkscape:original-d="M 5.8904446,4.506152 7.8539262,2.8585954 4.5814569,1.667514 2.6179754,3.3150705 Z"
         transform="translate(0,-0.06249999)" /></g><path
       style="fill:#ff711e;fill-opacity:1;stroke:#ff711e;stroke-width:0.0208333;stroke-linecap:round;stroke-linejoin:bevel;stroke-dasharray:none;stroke-dashoffset:0;stroke-opacity:1"
       d="M 2.8734056,4.6755428 2.3625451,5.1042057 A 0.16237978,0.16237978 170 0 1 2.2026322,5.1324026 L 1.3970839,4.839207 a 0.05412658,0.05412658 80.000003 0 1 -0.01628,-0.092326 L 1.8916649,4.3182184 a 0.16237978,0.16237978 170 0 1 0.1599129,-0.028197 l 0.8055483,0.2931956 a 0.05412658,0.05412658 80.000003 0 1 0.01628,0.092326 z"
       id="path666"
       inkscape:path-effect="#path-effect666"
       inkscape:original-d="M 2.9452223,4.6152815 2.2907284,5.164467 1.3089877,4.8071426 1.9634816,4.2579571 Z"
       transform="translate(0.06249999,0.89583331)" /><path
       style="fill:#ffffff;fill-opacity:1;stroke:#ff711e;stroke-width:0.0208333;stroke-linecap:round;stroke-linejoin:bevel;stroke-dasharray:none;stroke-dashoffset:0;stroke-opacity:1"
       d="M 2.8734056,4.6755428 2.3625451,5.1042057 A 0.16237978,0.16237978 170 0 1 2.2026322,5.1324026 L 1.3970839,4.839207 a 0.05412658,0.05412658 80.000003 0 1 -0.01628,-0.092326 L 1.8916649,4.3182184 a 0.16237978,0.16237978 170 0 1 0.1599129,-0.028197 l 0.8055483,0.2931956 a 0.05412658,0.05412658 80.000003 0 1 0.01628,0.092326 z"
       id="path666-3"
       inkscape:path-effect="#path-effect666-8"
       inkscape:original-d="M 2.9452223,4.6152815 2.2907284,5.164467 1.3089877,4.8071426 1.9634816,4.2579571 Z"
       transform="translate(0.06249999,0.85416665)" /><g
       id="g674"
       transform="translate(0.06249999,0.89583331)"><path
         id="path669"
         style="fill:none;stroke:#ff711e;stroke-width:0.0208333;stroke-linecap:round;stroke-linejoin:bevel;stroke-dasharray:none"
         d="m 0.4258518,2.8330107 c -0.0243578,0.00179 -0.046985,0.00978 -0.066565,0.023762 -0.004683,0.00334 -0.0118338,0.00936 -0.0159406,0.01339 -0.0316384,0.031022 -0.0500649,0.078827 -0.0520669,0.1352552 -2.027e-4,0.00571 -1.9986e-4,0.015015 -5.47e-6,0.020764 0.004368,0.1292015 0.0891413,0.2627163 0.1948691,0.3071891 0.005275,0.00222 0.0140201,0.00541 0.0195185,0.00711 0.0541084,0.016633 0.1027134,0.00594 0.13784255,-0.025384 0.004324,-0.00385 0.0119403,-0.00568 0.0173461,-0.00371 l 0.0838581,0.030532 c 0.005406,0.00197 0.0121103,0.00761 0.0151207,0.012512 0.0352228,0.057359 0.0841289,0.103846 0.13857212,0.1267301 0.00525,0.00221 0.0139731,0.0054 0.0194715,0.00709 0.0532095,0.016357 0.10109316,0.00629 0.13607646,-0.023829 0.00439,-0.00378 0.012059,-0.00554 0.017465,-0.00358 l 0.089167,0.032447 c 0.00541,0.00197 0.012184,0.00756 0.015285,0.012411 0.034892,0.054543 0.082222,0.098569 0.1347143,0.120639 0.00526,0.00221 0.013985,0.0054 0.019484,0.00709 0.051261,0.015758 0.097582,0.00699 0.1321849,-0.020606 0.00452,-0.00361 0.012309,-0.00525 0.017715,-0.00328 l 0.091974,0.033465 c 0.00541,0.00197 0.012115,0.0076 0.015131,0.012504 0.035203,0.05719 0.083994,0.1035331 0.1383178,0.126369 0.00525,0.00221 0.013974,0.0054 0.019472,0.00709 0.1055895,0.032459 0.1902336,-0.039147 0.1946573,-0.1649912 2.023e-4,-0.00576 1.993e-4,-0.015091 1.7e-6,-0.02084 -0.00204,-0.059264 -0.021294,-0.1220565 -0.054322,-0.1770937 -0.00295,-0.00491 -0.00795,-0.012764 -0.011168,-0.017531 -0.035404,-0.052403 -0.081248,-0.092253 -0.1294027,-0.1125438 -0.00527,-0.00222 -0.014013,-0.00542 -0.019513,-0.0071 -0.046921,-0.014383 -0.091631,-0.00859 -0.1266143,0.016388 -0.00469,0.00335 -0.011848,0.00937 -0.015952,0.013401 -7.376e-4,7.245e-4 -0.00147,0.00146 -0.00219,0.0022 -0.00401,0.00412 -0.011372,0.00613 -0.016778,0.00416 l -0.06923,-0.025201 c -0.00541,-0.00197 -0.011871,-0.00774 -0.014588,-0.012808 -0.00298,-0.00556 -0.00609,-0.011045 -0.00934,-0.016461 -0.00296,-0.00493 -0.00797,-0.012803 -0.01119,-0.01757 -0.035404,-0.052405 -0.081249,-0.092271 -0.1294032,-0.112564 -0.00527,-0.00222 -0.014013,-0.00542 -0.019512,-0.0071 -0.046921,-0.014381 -0.091631,-0.00857 -0.1266143,0.016408 -0.00469,0.00335 -0.011846,0.00937 -0.015955,0.013398 -0.00181,0.00178 -0.00359,0.00361 -0.00531,0.0055 -0.00389,0.00424 -0.011135,0.00633 -0.016541,0.00437 l -0.066807,-0.024309 c -0.00541,-0.00197 -0.011943,-0.0077 -0.014747,-0.012722 -0.00199,-0.00356 -0.00403,-0.00709 -0.00613,-0.010584 -0.00296,-0.00493 -0.00797,-0.012803 -0.01119,-0.01757 -0.035403,-0.052405 -0.0812303,-0.092271 -0.12938292,-0.1125638 -0.00527,-0.00222 -0.0140127,-0.00542 -0.0195125,-0.0071 -0.0469236,-0.014381 -0.0916488,-0.00857 -0.12663501,0.016409 -0.004691,0.00335 -0.0118473,0.00937 -0.0159519,0.0134 -6.6932e-4,6.569e-4 -0.001333,0.00132 -0.00199,0.00199 -0.004022,0.00411 -0.0113893,0.00611 -0.0167952,0.00414 l -0.071346,-0.025974 c -0.005406,-0.00197 -0.0119742,-0.00768 -0.014819,-0.012685 -0.001492,-0.00262 -0.003014,-0.00523 -0.004567,-0.00782 -0.00296,-0.00493 -0.007971,-0.012802 -0.0111913,-0.017569 -0.0354042,-0.052405 -0.0812484,-0.092271 -0.12940313,-0.112564 -0.00527,-0.00222 -0.0140126,-0.00542 -0.0195123,-0.0071 -0.0133177,-0.00408 -0.0264568,-0.00654 -0.0392467,-0.00739 -0.005739,-3.827e-4 -0.0150798,-3.735e-4 -0.0208159,4.91e-5 z"
         inkscape:path-effect="#path-effect672"
         inkscape:original-d="m 0.43625895,2.8326213 c -0.0318806,5.72e-5 -0.0612124,0.01037 -0.0852051,0.030538 -0.038388,0.032276 -0.0599569,0.087167 -0.0599569,0.1526082 0,0.1362664 0.0916412,0.2801593 0.20469156,0.3213908 0.0620969,0.022643 0.11773312,0.0096 0.15527344,-0.029338 l 0.10343425,0.037659 c 0.0375066,0.06487 0.0923875,0.117155 0.15350341,0.139445 0.0611974,0.022315 0.11611459,0.00998 0.15362549,-0.027649 l 0.1087443,0.039571 c 0.03737,0.061991 0.090665,0.111685 0.1498209,0.1332601 0.059244,0.021603 0.1126051,0.010727 0.1499838,-0.024129 l 0.1115519,0.040588 c 0.037501,0.064698 0.092261,0.1168314 0.1532593,0.1390787 0.1130566,0.041225 0.2047119,-0.035826 0.2047119,-0.1720988 0,-0.065435 -0.021569,-0.1360587 -0.059957,-0.1963297 -0.038388,-0.060271 -0.090459,-0.1052433 -0.144755,-0.1250407 -0.054289,-0.019798 -0.1063465,-0.012799 -0.1447347,0.01947 -0.00606,0.00509 -0.011684,0.010754 -0.016886,0.016927 L 1.4845581,3.2962443 C 1.4786166,3.2844289 1.4720791,3.2728781 1.4649455,3.2616781 1.4265575,3.2014071 1.3744863,3.1564144 1.3201904,3.136617 1.2659014,3.116819 1.2138439,3.1238386 1.1754557,3.1561076 c -0.00719,0.00605 -0.013796,0.012873 -0.019775,0.020426 l -0.086385,-0.031433 c -0.00511,-0.00974 -0.010633,-0.019297 -0.016561,-0.028605 -0.038388,-0.060271 -0.0904388,-0.1052637 -0.14473473,-0.1250611 -0.054289,-0.019798 -0.10636684,-0.012778 -0.14475504,0.019491 -0.005986,0.00503 -0.0115536,0.010617 -0.0167033,0.016703 L 0.6556193,2.9945272 C 0.65092815,2.9857505 0.6459035,2.9771449 0.64054362,2.9687297 0.60215562,2.9084587 0.55008447,2.863466 0.49578857,2.8436686 0.4754302,2.8362444 0.45538734,2.8325869 0.43625895,2.8326213 Z"
         transform="translate(1.185529,-1.630182)" /><path
         style="fill:#ffffff;fill-opacity:1;stroke:#ff711e;stroke-width:0.0208333;stroke-linecap:round;stroke-linejoin:bevel;stroke-dasharray:none;stroke-dashoffset:0;stroke-opacity:1"
         d="M 1.5450359,1.2235256 0.4852425,2.113633 2.0362323,2.9948095 3.081141,2.1195868"
         id="path674"
         sodipodi:nodetypes="cccc" /><path
         id="path672"
         style="fill:#ff711e;fill-opacity:1;stroke:#ff711e;stroke-width:0.0104167;stroke-linecap:round;stroke-linejoin:bevel"
         d="m 0.4258518,2.8330107 c -0.0243578,0.00179 -0.046985,0.00978 -0.066565,0.023762 -0.004683,0.00334 -0.0118338,0.00936 -0.0159406,0.01339 -0.0316384,0.031022 -0.0500649,0.078827 -0.0520669,0.1352552 -2.027e-4,0.00571 -1.9986e-4,0.015015 -5.47e-6,0.020764 0.004368,0.1292015 0.0891413,0.2627163 0.1948691,0.3071891 0.005275,0.00222 0.0140201,0.00541 0.0195185,0.00711 0.0541084,0.016633 0.1027134,0.00594 0.13784255,-0.025384 0.004324,-0.00385 0.0119403,-0.00568 0.0173461,-0.00371 l 0.0838581,0.030532 c 0.005406,0.00197 0.0121103,0.00761 0.0151207,0.012512 0.0352228,0.057359 0.0841289,0.103846 0.13857212,0.1267301 0.00525,0.00221 0.0139731,0.0054 0.0194715,0.00709 0.0532095,0.016357 0.10109316,0.00629 0.13607646,-0.023829 0.00439,-0.00378 0.012059,-0.00554 0.017465,-0.00358 l 0.089167,0.032447 c 0.00541,0.00197 0.012184,0.00756 0.015285,0.012411 0.034892,0.054543 0.082222,0.098569 0.1347143,0.120639 0.00526,0.00221 0.013985,0.0054 0.019484,0.00709 0.051261,0.015758 0.097582,0.00699 0.1321849,-0.020606 0.00452,-0.00361 0.012309,-0.00525 0.017715,-0.00328 l 0.091974,0.033465 c 0.00541,0.00197 0.012115,0.0076 0.015131,0.012504 0.035203,0.05719 0.083994,0.1035331 0.1383178,0.126369 0.00525,0.00221 0.013974,0.0054 0.019472,0.00709 0.1055895,0.032459 0.1902336,-0.039147 0.1946573,-0.1649912 2.023e-4,-0.00576 1.993e-4,-0.015091 1.7e-6,-0.02084 -0.00204,-0.059264 -0.021294,-0.1220565 -0.054322,-0.1770937 -0.00295,-0.00491 -0.00795,-0.012764 -0.011168,-0.017531 -0.035404,-0.052403 -0.081248,-0.092253 -0.1294027,-0.1125438 -0.00527,-0.00222 -0.014013,-0.00542 -0.019513,-0.0071 -0.046921,-0.014383 -0.091631,-0.00859 -0.1266143,0.016388 -0.00469,0.00335 -0.011848,0.00937 -0.015952,0.013401 -7.376e-4,7.245e-4 -0.00147,0.00146 -0.00219,0.0022 -0.00401,0.00412 -0.011372,0.00613 -0.016778,0.00416 l -0.06923,-0.025201 c -0.00541,-0.00197 -0.011871,-0.00774 -0.014588,-0.012808 -0.00298,-0.00556 -0.00609,-0.011045 -0.00934,-0.016461 -0.00296,-0.00493 -0.00797,-0.012803 -0.01119,-0.01757 -0.035404,-0.052405 -0.081249,-0.092271 -0.1294032,-0.112564 -0.00527,-0.00222 -0.014013,-0.00542 -0.019512,-0.0071 -0.046921,-0.014381 -0.091631,-0.00857 -0.1266143,0.016408 -0.00469,0.00335 -0.011846,0.00937 -0.015955,0.013398 -0.00181,0.00178 -0.00359,0.00361 -0.00531,0.0055 -0.00389,0.00424 -0.011135,0.00633 -0.016541,0.00437 l -0.066807,-0.024309 c -0.00541,-0.00197 -0.011943,-0.0077 -0.014747,-0.012722 -0.00199,-0.00356 -0.00403,-0.00709 -0.00613,-0.010584 -0.00296,-0.00493 -0.00797,-0.012803 -0.01119,-0.01757 -0.035403,-0.052405 -0.0812303,-0.092271 -0.12938292,-0.1125638 -0.00527,-0.00222 -0.0140127,-0.00542 -0.0195125,-0.0071 -0.0469236,-0.014381 -0.0916488,-0.00857 -0.12663501,0.016409 -0.004691,0.00335 -0.0118473,0.00937 -0.0159519,0.0134 -6.6932e-4,6.569e-4 -0.001333,0.00132 -0.00199,0.00199 -0.004022,0.00411 -0.0113893,0.00611 -0.0167952,0.00414 l -0.071346,-0.025974 c -0.005406,-0.00197 -0.0119742,-0.00768 -0.014819,-0.012685 -0.001492,-0.00262 -0.003014,-0.00523 -0.004567,-0.00782 -0.00296,-0.00493 -0.007971,-0.012802 -0.0111913,-0.017569 -0.0354042,-0.052405 -0.0812484,-0.092271 -0.12940313,-0.112564 -0.00527,-0.00222 -0.0140126,-0.00542 -0.0195123,-0.0071 -0.0133177,-0.00408 -0.0264568,-0.00654 -0.0392467,-0.00739 -0.005739,-3.827e-4 -0.0150798,-3.735e-4 -0.0208159,4.91e-5 z"
         inkscape:path-effect="#path-effect674"
         inkscape:original-d="m 0.43625895,2.8326213 c -0.0318806,5.72e-5 -0.0612124,0.01037 -0.0852051,0.030538 -0.038388,0.032276 -0.0599569,0.087167 -0.0599569,0.1526082 0,0.1362664 0.0916412,0.2801593 0.20469156,0.3213908 0.0620969,0.022643 0.11773312,0.0096 0.15527344,-0.029338 l 0.10343425,0.037659 c 0.0375066,0.06487 0.0923875,0.117155 0.15350341,0.139445 0.0611974,0.022315 0.11611459,0.00998 0.15362549,-0.027649 l 0.1087443,0.039571 c 0.03737,0.061991 0.090665,0.111685 0.1498209,0.1332601 0.059244,0.021603 0.1126051,0.010727 0.1499838,-0.024129 l 0.1115519,0.040588 c 0.037501,0.064698 0.092261,0.1168314 0.1532593,0.1390787 0.1130566,0.041225 0.2047119,-0.035826 0.2047119,-0.1720988 0,-0.065435 -0.021569,-0.1360587 -0.059957,-0.1963297 -0.038388,-0.060271 -0.090459,-0.1052433 -0.144755,-0.1250407 -0.054289,-0.019798 -0.1063465,-0.012799 -0.1447347,0.01947 -0.00606,0.00509 -0.011684,0.010754 -0.016886,0.016927 L 1.4845581,3.2962443 C 1.4786166,3.2844289 1.4720791,3.2728781 1.4649455,3.2616781 1.4265575,3.2014071 1.3744863,3.1564144 1.3201904,3.136617 1.2659014,3.116819 1.2138439,3.1238386 1.1754557,3.1561076 c -0.00719,0.00605 -0.013796,0.012873 -0.019775,0.020426 l -0.086385,-0.031433 c -0.00511,-0.00974 -0.010633,-0.019297 -0.016561,-0.028605 -0.038388,-0.060271 -0.0904388,-0.1052637 -0.14473473,-0.1250611 -0.054289,-0.019798 -0.10636684,-0.012778 -0.14475504,0.019491 -0.005986,0.00503 -0.0115536,0.010617 -0.0167033,0.016703 L 0.6556193,2.9945272 C 0.65092815,2.9857505 0.6459035,2.9771449 0.64054362,2.9687297 0.60215562,2.9084587 0.55008447,2.863466 0.49578857,2.8436686 0.4754302,2.8362444 0.45538734,2.8325869 0.43625895,2.8326213 Z"
         transform="translate(0.14409783,-0.75651359)" /></g></g></svg>
