<?xml version="1.0" encoding="UTF-8" standalone="no"?>
<!-- Created with Inkscape (http://www.inkscape.org/) -->

<svg
   width="7.5824246in"
   height="6.4305372in"
   viewBox="0 0 7.5824247 6.4305372"
   version="1.1"
   id="svg1"
   xml:space="preserve"
   inkscape:version="1.4.1 (93de688d07, 2025-03-30)"
   sodipodi:docname="devices_illo.svg"
   inkscape:export-filename="../src/devices_illo.png"
   inkscape:export-xdpi="164.12263"
   inkscape:export-ydpi="164.12263"
   xmlns:inkscape="http://www.inkscape.org/namespaces/inkscape"
   xmlns:sodipodi="http://sodipodi.sourceforge.net/DTD/sodipodi-0.dtd"
   xmlns="http://www.w3.org/2000/svg"
   xmlns:svg="http://www.w3.org/2000/svg"><sodipodi:namedview
     id="namedview1"
     pagecolor="#ffffff"
     bordercolor="#000000"
     borderopacity="0.25"
     inkscape:showpageshadow="false"
     inkscape:pageopacity="0.0"
     inkscape:pagecheckerboard="0"
     inkscape:deskcolor="#d1d1d1"
     inkscape:document-units="px"
     showgrid="false"
     inkscape:zoom="1.0399601"
     inkscape:cx="275.49133"
     inkscape:cy="264.91401"
     inkscape:window-width="2252"
     inkscape:window-height="1392"
     inkscape:window-x="0"
     inkscape:window-y="0"
     inkscape:window-maximized="0"
     inkscape:current-layer="layer2"><inkscape:grid
       type="axonomgrid"
       id="grid1"
       units="mm"
       originx="-0.36230179"
       originy="-1.977722"
       spacingx="3.7795276"
       spacingy="0.039370079"
       empcolor="#0099e5"
       empopacity="0.30196078"
       color="#0099e5"
       opacity="0.14902"
       empspacing="10"
       dotted="false"
       gridanglex="20"
       gridanglez="40"
       enabled="true"
       visible="false" /></sodipodi:namedview><defs
     id="defs1"><inkscape:path-effect
   effect="fillet_chamfer"
   id="path-effect678"
   is_visible="true"
   lpeversion="1"
   nodesatellites_param="F,0,0,1,0,0,0,1 @ F,0,0,1,0,0.15625,0,1 @ F,0,0,1,0,0.15625,0,1 @ F,0,0,1,0,0.15625,0,1 @ F,0,0,1,0,0,0,1"
   radius="15"
   unit="px"
   method="auto"
   mode="F"
   chamfer_steps="1"
   flexible="false"
   use_knot_distance="true"
   apply_no_radius="true"
   apply_with_radius="true"
   only_selected="false"
   hide_knots="false" /><inkscape:path-effect
   effect="fillet_chamfer"
   id="path-effect677"
   is_visible="true"
   lpeversion="1"
   nodesatellites_param="F,0,0,1,0,0,0,1 @ F,0,0,1,0,0.15625,0,1 @ F,0,0,1,0,0.15625,0,1 @ F,0,0,1,0,0,0,1"
   radius="15"
   unit="px"
   method="auto"
   mode="F"
   chamfer_steps="1"
   flexible="false"
   use_knot_distance="true"
   apply_no_radius="true"
   apply_with_radius="true"
   only_selected="false"
   hide_knots="false" /><inkscape:path-effect
   effect="fillet_chamfer"
   id="path-effect676"
   is_visible="true"
   lpeversion="1"
   nodesatellites_param="F,0,0,1,0,0,0,1 @ F,0,0,1,0,0.15625,0,1 @ F,0,0,1,0,0.15625,0,1 @ F,0,0,1,0,0.15625,0,1 @ F,0,0,1,0,0,0,1"
   radius="15"
   unit="px"
   method="auto"
   mode="F"
   chamfer_steps="1"
   flexible="false"
   use_knot_distance="true"
   apply_no_radius="true"
   apply_with_radius="true"
   only_selected="false"
   hide_knots="false" /><inkscape:path-effect
   effect="fillet_chamfer"
   id="path-effect674"
   is_visible="true"
   lpeversion="1"
   nodesatellites_param="F,0,0,1,0,0.010416667,0,1 @ F,0,0,1,0,0.010416667,0,1 @ F,0,0,1,0,0.010416667,0,1 @ F,0,0,1,0,0.010416667,0,1 @ F,0,0,1,0,0.010416667,0,1 @ F,0,0,1,0,0.010416667,0,1 @ F,0,0,1,0,0.010416667,0,1 @ F,0,0,1,0,0.010416667,0,1 @ F,0,0,1,0,0.010416667,0,1 @ F,0,0,1,0,0.010416667,0,1 @ F,0,0,1,0,0.010416667,0,1 @ F,0,0,1,0,0.010416667,0,1 @ F,0,0,1,0,0.010416667,0,1 @ F,0,0,1,0,0.010416667,0,1 @ F,0,0,1,0,0.010416667,0,1 @ F,0,0,1,0,0.010416667,0,1 @ F,0,0,1,0,0.010416667,0,1 @ F,0,0,1,0,0.010416667,0,1 @ F,0,0,1,0,0.010416667,0,1 @ F,0,0,1,0,0.010416667,0,1 @ F,0,0,1,0,0.010416667,0,1 @ F,0,0,1,0,0.010416667,0,1 @ F,0,0,1,0,0.010416667,0,1 @ F,0,0,1,0,0.010416667,0,1 @ F,0,0,1,0,0.010416667,0,1 @ F,0,0,1,0,0.010416667,0,1 @ F,0,0,1,0,0.010416667,0,1 @ F,0,0,1,0,0.010416667,0,1 @ F,0,0,1,0,0.010416667,0,1 @ F,0,0,1,0,0.010416667,0,1 @ F,0,0,1,0,0.010416667,0,1"
   radius="1"
   unit="px"
   method="auto"
   mode="F"
   chamfer_steps="1"
   flexible="false"
   use_knot_distance="true"
   apply_no_radius="true"
   apply_with_radius="true"
   only_selected="false"
   hide_knots="false" /><inkscape:path-effect
   effect="fillet_chamfer"
   id="path-effect672"
   is_visible="true"
   lpeversion="1"
   nodesatellites_param="F,0,0,1,0,0.010416667,0,1 @ F,0,0,1,0,0.010416667,0,1 @ F,0,0,1,0,0.010416667,0,1 @ F,0,0,1,0,0.010416667,0,1 @ F,0,0,1,0,0.010416667,0,1 @ F,0,0,1,0,0.010416667,0,1 @ F,0,0,1,0,0.010416667,0,1 @ F,0,0,1,0,0.010416667,0,1 @ F,0,0,1,0,0.010416667,0,1 @ F,0,0,1,0,0.010416667,0,1 @ F,0,0,1,0,0.010416667,0,1 @ F,0,0,1,0,0.010416667,0,1 @ F,0,0,1,0,0.010416667,0,1 @ F,0,0,1,0,0.010416667,0,1 @ F,0,0,1,0,0.010416667,0,1 @ F,0,0,1,0,0.010416667,0,1 @ F,0,0,1,0,0.010416667,0,1 @ F,0,0,1,0,0.010416667,0,1 @ F,0,0,1,0,0.010416667,0,1 @ F,0,0,1,0,0.010416667,0,1 @ F,0,0,1,0,0.010416667,0,1 @ F,0,0,1,0,0.010416667,0,1 @ F,0,0,1,0,0.010416667,0,1 @ F,0,0,1,0,0.010416667,0,1 @ F,0,0,1,0,0.010416667,0,1 @ F,0,0,1,0,0.010416667,0,1 @ F,0,0,1,0,0.010416667,0,1 @ F,0,0,1,0,0.010416667,0,1 @ F,0,0,1,0,0.010416667,0,1 @ F,0,0,1,0,0.010416667,0,1 @ F,0,0,1,0,0.010416667,0,1"
   radius="1"
   unit="px"
   method="auto"
   mode="F"
   chamfer_steps="1"
   flexible="false"
   use_knot_distance="true"
   apply_no_radius="true"
   apply_with_radius="true"
   only_selected="false"
   hide_knots="false" /><inkscape:path-effect
   effect="fillet_chamfer"
   id="path-effect666"
   is_visible="true"
   lpeversion="1"
   nodesatellites_param="F,0,0,1,0,0.09375,0,1 @ F,0,0,1,0,0.09375,0,1 @ F,0,0,1,0,0.09375,0,1 @ F,0,0,1,0,0.09375,0,1"
   radius="9"
   unit="px"
   method="auto"
   mode="F"
   chamfer_steps="1"
   flexible="false"
   use_knot_distance="true"
   apply_no_radius="true"
   apply_with_radius="true"
   only_selected="false"
   hide_knots="false" /><inkscape:path-effect
   effect="fillet_chamfer"
   id="path-effect665"
   is_visible="true"
   lpeversion="1"
   nodesatellites_param="F,0,0,1,0,0.21875,0,1 @ F,0,0,1,0,0.21875,0,1 @ F,0,0,1,0,0.21875,0,1 @ F,0,0,1,0,0.21875,0,1"
   radius="21"
   unit="px"
   method="auto"
   mode="F"
   chamfer_steps="1"
   flexible="false"
   use_knot_distance="true"
   apply_no_radius="true"
   apply_with_radius="true"
   only_selected="false"
   hide_knots="false" /><style
   id="style1">
      .st0 {
        font-size: 2.8px;
      }

      .st0, .st1, .st2, .st3, .st4, .st5, .st6, .st7, .st8, .st9, .st10, .st11, .st12 {
        fill: #fff;
      }

      .st0, .st1, .st2, .st4, .st13, .st14, .st5, .st15, .st16, .st6, .st7, .st17, .st8, .st9, .st18, .st10, .st19, .st20, .st21, .st11, .st12 {
        isolation: isolate;
      }

      .st0, .st1, .st5, .st6, .st7, .st9, .st12 {
        font-family: ArialMT, Arial;
      }

      .st1 {
        font-size: 4.7px;
      }

      .st22 {
        fill: #80795b;
      }

      .st23 {
        fill: #d1c690;
      }

      .st24 {
        fill: #5e5b43;
      }

      .st2 {
        opacity: .6;
      }

      .st25 {
        stroke-width: .9px;
      }

      .st25, .st26, .st27, .st28, .st20, .st29 {
        fill: none;
      }

      .st25, .st27, .st28, .st29 {
        stroke-miterlimit: 5;
      }

      .st25, .st28 {
        stroke: #fff;
      }

      .st30 {
        fill-opacity: .3;
      }

      .st30, .st31 {
        fill: #3d3d3d;
      }

      .st32 {
        fill: #494949;
      }

      .st33 {
        fill: lime;
      }

      .st33, .st34 {
        fill-opacity: .4;
      }

      .st35 {
        fill: #22b573;
        fill-opacity: .7;
      }

      .st36 {
        fill: #b8af82;
      }

      .st37 {
        fill: #303030;
      }

      .st38 {
        fill: #0f7391;
      }

      .st4 {
        opacity: .3;
      }

      .st13 {
        stroke: #565656;
      }

      .st13, .st14 {
        opacity: .2;
      }

      .st13, .st20 {
        stroke-miterlimit: 12.5;
        stroke-width: .3px;
      }

      .st39, .st21 {
        fill: #f2f2f2;
      }

      .st40 {
        fill: #404040;
      }

      .st5 {
        font-size: 5.8px;
      }

      .st41 {
        fill: #1f1f1f;
      }

      .st16, .st11 {
        opacity: .1;
      }

      .st6 {
        font-size: 7.7px;
      }

      .st42 {
        fill: #373737;
      }

      .st7 {
        font-size: 5.2px;
      }

      .st17 {
        opacity: 0;
      }

      .st43 {
        fill: #8c8663;
      }

      .st8, .st19, .st20, .st21 {
        opacity: .5;
      }

      .st34 {
        fill: #ff0;
      }

      .st27 {
        stroke-width: 1px;
      }

      .st27, .st29 {
        stroke: #9a916c;
      }

      .st9 {
        font-size: 4.2px;
      }

      .st44 {
        fill: #6d6d6d;
      }

      .st45 {
        fill: #333;
      }

      .st46 {
        fill: #474747;
      }

      .st47 {
        fill: #8d8455;
      }

      .st48 {
        fill: #595959;
      }

      .st49 {
        fill: #1a1a1a;
      }

      .st50 {
        fill: #9a916c;
      }

      .st51 {
        fill: #999;
      }

      .st18, .st10 {
        opacity: .2;
      }

      .st52 {
        fill: #232323;
      }

      .st53 {
        fill: #852725;
      }

      .st54 {
        fill: #641d1c;
      }

      .st55, .st19 {
        fill: #ccc;
      }

      .st56 {
        fill: #b3b3b3;
      }

      .st28 {
        stroke-linecap: round;
        stroke-width: 1.1px;
      }

      .st57 {
        fill: #2a2a29;
      }

      .st58 {
        fill: gray;
      }

      .st59 {
        fill: #8d8c8c;
      }

      .st60 {
        fill: #9d956c;
      }

      .st20 {
        stroke: #000;
      }

      .st61 {
        fill: #0f0f0f;
        fill-opacity: .4;
      }

      .st29 {
        stroke-width: 1.1px;
      }

      .st62 {
        fill: #e6e6e6;
      }

      .st12 {
        font-size: 4.6px;
      }
    </style>























































<clipPath
   clipPathUnits="userSpaceOnUse"
   id="clipPath645"><path
     d="M -1.5682968,18.351197 H 2.4227007 V 1.9662608e-4 h -3.9909975 z"
     id="path645"
     inkscape:connector-curvature="0"
     style="stroke-width:0.999998" /></clipPath><clipPath
   clipPathUnits="userSpaceOnUse"
   id="clipPath646"><path
     d="M -8.9458018,3.0171548e-4 H 1.9822466e-4 V -17.404701 H -8.9458018 Z"
     id="path646"
     inkscape:connector-curvature="0"
     style="stroke-width:0.999998" /></clipPath><clipPath
   clipPathUnits="userSpaceOnUse"
   id="clipPath647"><path
     d="M -1.967777e-4,3.6635966 H 7.3168033 V -4.0087155e-4 H -1.967777e-4 Z"
     id="path647"
     inkscape:connector-curvature="0"
     style="stroke-width:0.999998" /></clipPath><clipPath
   clipPathUnits="userSpaceOnUse"
   id="clipPath648"><path
     d="M -7.0880968,13.740502 H 1.8439008 V -5.0335323e-4 h -8.9319976 z"
     id="path648"
     inkscape:connector-curvature="0"
     style="stroke-width:0.999998" /></clipPath><clipPath
   clipPathUnits="userSpaceOnUse"
   id="clipPath649"><path
     d="M -18.351099,2.4231214 H -9.9182986e-5 v -3.99105 H -18.351099 Z"
     id="path649"
     inkscape:connector-curvature="0"
     style="stroke-width:0.999998" /></clipPath><clipPath
   clipPathUnits="userSpaceOnUse"
   id="clipPath650"><path
     d="M -9.6772378e-5,-5.0352573e-4 H 17.404898 V -8.9465036 H -9.6772378e-5 Z"
     id="path650"
     inkscape:connector-curvature="0"
     style="stroke-width:0.999998" /></clipPath><clipPath
   clipPathUnits="userSpaceOnUse"
   id="clipPath651"><path
     d="M -3.6638992,7.3170715 H 9.8314649e-5 V 7.14719e-5 H -3.6638992 Z"
     id="path651"
     inkscape:connector-curvature="0"
     style="stroke-width:0.999998" /></clipPath>






















































<clipPath
   clipPathUnits="userSpaceOnUse"
   id="clipPath652"><path
     d="M -13.740797,1.8442215 H 2.0079633e-4 v -8.93205 H -13.740797 Z"
     id="path652"
     inkscape:connector-curvature="0"
     style="stroke-width:0.999998" /></clipPath>

































































<inkscape:path-effect
   effect="fillet_chamfer"
   id="path-effect665-8"
   is_visible="true"
   lpeversion="1"
   nodesatellites_param="F,0,0,1,0,0.21875,0,1 @ F,0,0,1,0,0.21875,0,1 @ F,0,0,1,0,0.21875,0,1 @ F,0,0,1,0,0.21875,0,1"
   radius="21"
   unit="px"
   method="auto"
   mode="F"
   chamfer_steps="1"
   flexible="false"
   use_knot_distance="true"
   apply_no_radius="true"
   apply_with_radius="true"
   only_selected="false"
   hide_knots="false" /><inkscape:path-effect
   effect="fillet_chamfer"
   id="path-effect666-8"
   is_visible="true"
   lpeversion="1"
   nodesatellites_param="F,0,0,1,0,0.09375,0,1 @ F,0,0,1,0,0.09375,0,1 @ F,0,0,1,0,0.09375,0,1 @ F,0,0,1,0,0.09375,0,1"
   radius="9"
   unit="px"
   method="auto"
   mode="F"
   chamfer_steps="1"
   flexible="false"
   use_knot_distance="true"
   apply_no_radius="true"
   apply_with_radius="true"
   only_selected="false"
   hide_knots="false" /></defs><g
     inkscape:groupmode="layer"
     id="layer2"
     inkscape:label="Layer 2"
     transform="translate(-0.36230177,-1.9777219)"><rect
       style="fill:#ffffff;stroke-width:0.0208333;stroke-linecap:round;stroke-linejoin:bevel"
       id="rect1"
       width="7.5824246"
       height="6.4305372"
       x="0.36230177"
       y="1.9777219" /><g
       id="g676"
       transform="translate(-0.04166666,0.89583331)"><path
         style="fill:none;fill-opacity:1;stroke:#ff711e;stroke-width:0.0208333;stroke-linecap:round;stroke-linejoin:bevel;stroke-dasharray:none;stroke-dashoffset:0;stroke-opacity:1"
         d="M 2.1191083,4.8364645 2.7746409,4.2864074 a 0.26977,0.26977 170.0793 0 1 0.2663729,-0.046589 l 0.6858298,0.2517736 a 0.26977004,0.26977004 170.0793 0 0 0.266373,-0.046589 L 4.6173891,3.9212608 4.7370836,3.8208252"
         id="path667"
         inkscape:path-effect="#path-effect676"
         inkscape:original-d="m 2.1191083,4.8364645 0.775227,-0.6504927 0.9791868,0.3594674 0.8635615,-0.724614 v 0" /><path
         style="fill:none;fill-opacity:1;stroke:#ff711e;stroke-width:0.0208333;stroke-linecap:round;stroke-linejoin:bevel;stroke-dasharray:none;stroke-dashoffset:0;stroke-opacity:1"
         d="M 1.9634816,4.6516579 2.4982809,4.2029081 A 0.09021097,0.09021097 80.000003 0 0 2.4711484,4.0490318 L 0.80132081,3.4412643 A 0.09021098,0.09021098 80 0 1 0.77418828,3.287388 L 1.8496737,2.3849486"
         id="path675"
         inkscape:path-effect="#path-effect677"
         inkscape:original-d="M 1.9634816,4.6516579 2.6179754,4.1024725 0.65449384,3.3878236 1.8496737,2.3849486" /><path
         style="fill:none;fill-opacity:1;stroke:#ff711e;stroke-width:0.0208333;stroke-linecap:round;stroke-linejoin:bevel;stroke-dasharray:none;stroke-dashoffset:0;stroke-opacity:1"
         d="M 3.2724693,5.9154923 2.625472,5.6800046 A 0.08927099,0.08927099 80.259182 0 1 2.5992432,5.5272154 L 3.0209723,5.1797959 A 0.089271,0.089271 80.259186 0 0 2.9947435,5.0270067 L 2.6339036,4.8956716 2.4870766,4.842231"
         id="path676"
         inkscape:path-effect="#path-effect678"
         inkscape:original-d="M 3.2724693,5.9154923 2.478645,5.626564 3.1415705,5.0804473 2.4870766,4.842231 v 0" /></g></g><g
     inkscape:label="Layer 1"
     inkscape:groupmode="layer"
     id="layer1"
     style="display:inline"
     transform="translate(-0.36230164,-1.9777194)"><g
       id="g664"
       style="fill:#ffffff;fill-opacity:1"
       transform="translate(0.06249999,0.89583331)"><path
         id="path11835"
         style="fill:#ff711e;fill-opacity:1;fill-rule:nonzero;stroke:#ff711e;stroke-width:0.0208333;stroke-dasharray:none;stroke-opacity:1"
         d="m 2.7819003,6.6749484 c -0.02444,0.02046 -0.02035,0.04577 0.00913,0.05654 0.02948,0.01078 0.07319,0.00292 0.09763,-0.01753 l 1.3e-4,-1.1e-4 c 0.02444,-0.02045 0.02036,-0.04577 -0.00913,-0.05654 -0.02948,-0.01077 -0.07319,-0.00292 -0.09763,0.01753 z m 1.37478,-1.10255 c -0.02443,0.02045 -0.02035,0.04578 0.00914,0.05655 0.02948,0.01077 0.07318,0.00292 0.09763,-0.01754 l 1.2e-4,-10e-5 c 0.02445,-0.02046 0.02036,-0.04578 -0.00913,-0.05654 -0.02948,-0.01078 -0.0732,-0.00293 -0.09763,0.01753 z m 0.50473,1.6179 c -0.02444,0.02046 -0.02037,0.04578 0.00911,0.05655 0.02948,0.01078 0.07318,0.00293 0.09762,-0.01751 l 1.6e-4,-1.3e-4 c 0.02444,-0.02046 0.02037,-0.04577 -0.00909,-0.05655 -0.02949,-0.01077 -0.07319,-0.00294 -0.09765,0.01751 z m 0.77137,-0.64725 c -0.02445,0.02046 -0.02037,0.04577 0.00911,0.05655 0.02946,0.01078 0.07317,0.00293 0.09763,-0.01752 l 1.5e-4,-1.3e-4 c 0.02444,-0.02045 0.02036,-0.04577 -0.0091,-0.05654 -0.02947,-0.01078 -0.07318,-0.00294 -0.09764,0.01751 z m 0.18667,-0.09235 0.01472,0.08972 -0.90461,0.75906 -0.15496,0.02796 -0.04251,0.03567 c -0.01526,0.0128 -0.04256,0.01773 -0.06101,0.01101 h -10e-6 l -1.34527,-0.48964 -0.00515,-0.0314 -0.16545,-0.06022 -0.05422,0.00979 -0.56899,-0.20709 c -0.01844,-0.00671 -0.02104,-0.02253 -0.00579,-0.03533 l 1.4174,-1.18933 c 0.01524,-0.01279 0.04256,-0.01772 0.06101,-0.01101 l 2.12158,0.7722 0.00882,0.05383 z" /><path
         id="path654"
         style="fill:#ffffff;fill-opacity:1;fill-rule:nonzero;stroke:#ff711e;stroke-width:0.0208333;stroke-dasharray:none;stroke-opacity:1"
         d="m 2.7819003,6.6212572 c -0.02444,0.02046 -0.02035,0.04577 0.00913,0.05654 0.02948,0.01078 0.07319,0.00292 0.09763,-0.01753 l 1.3e-4,-1.1e-4 c 0.02444,-0.02045 0.02036,-0.04577 -0.00913,-0.05654 -0.02948,-0.01077 -0.07319,-0.00292 -0.09763,0.01753 z m 1.37478,-1.10255 c -0.02443,0.02045 -0.02035,0.04578 0.00914,0.05655 0.02948,0.01077 0.07318,0.00292 0.09763,-0.01754 l 1.2e-4,-10e-5 c 0.02445,-0.02046 0.02036,-0.04578 -0.00913,-0.05654 -0.02948,-0.01078 -0.0732,-0.00293 -0.09763,0.01753 z m 0.50473,1.6179 c -0.02444,0.02046 -0.02037,0.04578 0.00911,0.05655 0.02948,0.01078 0.07318,0.00293 0.09762,-0.01751 l 1.6e-4,-1.3e-4 c 0.02444,-0.02046 0.02037,-0.04577 -0.00909,-0.05655 -0.02949,-0.01077 -0.07319,-0.00294 -0.09765,0.01751 z m 0.77137,-0.64725 c -0.02445,0.02046 -0.02037,0.04577 0.00911,0.05655 0.02946,0.01078 0.07317,0.00293 0.09763,-0.01752 l 1.5e-4,-1.3e-4 c 0.02444,-0.02045 0.02036,-0.04577 -0.0091,-0.05654 -0.02947,-0.01078 -0.07318,-0.00294 -0.09764,0.01751 z m 0.18667,-0.09235 0.01472,0.08972 -0.90461,0.75906 -0.15496,0.02796 -0.04251,0.03567 c -0.01526,0.0128 -0.04256,0.01773 -0.06101,0.01101 h -10e-6 l -1.34527,-0.48964 -0.00515,-0.0314 -0.16545,-0.06022 -0.05422,0.00979 -0.56899,-0.20709 c -0.01844,-0.00671 -0.02104,-0.02253 -0.00579,-0.03533 l 1.4174,-1.18933 c 0.01524,-0.01279 0.04256,-0.01772 0.06101,-0.01101 l 2.12158,0.7722 0.00882,0.05383 z" /><g
         id="g658"
         transform="matrix(1.0742808,0,0,1.0746556,0.31003203,1.3511082)"
         style="fill:#ffffff;fill-opacity:1;stroke-width:0.0193894;stroke-dasharray:none"><path
           id="path656"
           style="fill:#ffffff;fill-opacity:1;stroke:#ff711e;stroke-width:0.0193894;stroke-linecap:round;stroke-linejoin:bevel;stroke-dasharray:none;stroke-opacity:1"
           d="m 2.1598199,4.447541 c 0,-0.031324 -0.010343,-0.052683 -0.028756,-0.059385 -0.018407,-0.0067 -0.043378,0.00181 -0.069416,0.023651 -0.054213,0.045496 -0.098167,0.1352508 -0.098167,0.2004794 0,0.065229 0.043954,0.081224 0.098167,0.035734 0.026039,-0.021851 0.051009,-0.055245 0.069416,-0.092839 0.018413,-0.0376 0.028756,-0.076316 0.028756,-0.1076404 z" /><path
           style="fill:#ffffff;fill-opacity:1;stroke:#ff711e;stroke-width:0.0193894;stroke-linecap:round;stroke-linejoin:bevel;stroke-dasharray:none;stroke-dashoffset:0;stroke-opacity:1"
           d="M 1.9841349,4.6689319 2.2907321,4.7794173 2.4279182,4.4949172 2.1268453,4.3862732"
           id="path658"
           sodipodi:nodetypes="cccc" /><path
           id="path657"
           style="fill:#ffffff;fill-opacity:1;stroke:#ff711e;stroke-width:0.0193894;stroke-linecap:round;stroke-linejoin:bevel;stroke-dasharray:none;stroke-opacity:1"
           d="m 2.454342,4.5547383 c 0,-0.031324 -0.010343,-0.052683 -0.028756,-0.059385 -0.018407,-0.0067 -0.043378,0.00181 -0.069416,0.023651 -0.054213,0.045496 -0.098167,0.1352508 -0.098167,0.2004794 0,0.065229 0.043954,0.081224 0.098167,0.035734 0.026039,-0.021851 0.051009,-0.055245 0.069416,-0.092839 0.018413,-0.0376 0.028756,-0.076316 0.028756,-0.1076404 z" /></g><path
         style="fill:#ffffff;fill-opacity:1;stroke:#ff711e;stroke-width:0.0208333;stroke-linecap:round;stroke-linejoin:bevel;stroke-dasharray:none;stroke-dashoffset:0;stroke-opacity:1"
         d="M 3.0591746,6.276291 3.6154944,6.4787749 3.9427412,6.2041821 3.3864215,6.0016983 Z"
         id="path659" /><path
         style="fill:#ffffff;fill-opacity:1;stroke:#ff711e;stroke-width:0.0208333;stroke-linecap:round;stroke-linejoin:bevel;stroke-dasharray:none;stroke-dashoffset:0;stroke-opacity:1"
         d="M 3.0591746,6.2416298 3.6154944,6.4441137 3.9427412,6.1695209 3.3864215,5.9670371 Z"
         id="path659-2" /><g
         id="g662"
         transform="matrix(0.92593547,0,0,0.92545498,0.85428963,1.950355)"
         style="fill:#ffffff;fill-opacity:1;stroke-width:0.0225056;stroke-dasharray:none"><path
           id="rect659"
           style="fill:#ffffff;fill-opacity:1;stroke:#ff711e;stroke-width:0.0225056;stroke-linecap:round;stroke-linejoin:bevel;stroke-dasharray:none;stroke-opacity:1"
           d="m 2.6323041,3.9753808 0.21186,-0.1773 c 0.02187,-0.01829 0.03947,-0.00668 0.03947,0.02603 0,0.03272 -0.0176,0.07379 -0.03947,0.09208 l -0.21186,0.1773 c -0.02186,0.01829 -0.03946,0.00668 -0.03946,-0.02603 0,-0.03272 0.0176,-0.07379 0.03946,-0.09208 z" /><path
           style="fill:#ffffff;fill-opacity:1;stroke:#ff711e;stroke-width:0.0225056;stroke-linecap:round;stroke-linejoin:bevel;stroke-dasharray:none;stroke-dashoffset:0;stroke-opacity:1"
           d="m 2.602667,4.0969006 0.2580978,0.09394 0.261632,-0.3106309 -0.2539063,-0.091146"
           id="path662"
           sodipodi:nodetypes="cccc" /><path
           id="path661"
           style="fill:#ffffff;fill-opacity:1;stroke:#ff711e;stroke-width:0.0225056;stroke-linecap:round;stroke-linejoin:bevel;stroke-dasharray:none;stroke-opacity:1"
           d="m 2.8862104,4.0639225 0.21186,-0.1773 c 0.02187,-0.01829 0.03947,-0.00668 0.03947,0.02603 0,0.03272 -0.0176,0.07379 -0.03947,0.09208 l -0.21186,0.1773 c -0.02186,0.01829 -0.03946,0.00668 -0.03946,-0.02603 0,-0.03272 0.0176,-0.07379 0.03946,-0.09208 z" /></g><path
         style="fill:#ffffff;fill-opacity:1;stroke:#ff711e;stroke-width:0.0208333;stroke-linecap:round;stroke-linejoin:bevel;stroke-dasharray:none;stroke-dashoffset:0;stroke-opacity:1"
         d="M 4.7548662,7.049496 4.3294452,6.8946554 4.558518,6.7024405 4.9839391,6.8572812 Z"
         id="path664" /><path
         style="fill:#ffffff;fill-opacity:1;stroke:#ff711e;stroke-width:0.0208333;stroke-linecap:round;stroke-linejoin:bevel;stroke-dasharray:none;stroke-dashoffset:0;stroke-opacity:1"
         d="M 4.7548662,7.0182457 4.3294452,6.8634051 4.558518,6.6711902 4.9839391,6.8260309 Z"
         id="path663" /></g><g
       id="g665"
       transform="translate(0.06249999,0.89583331)"><path
         style="fill:#ff711e;fill-opacity:1;stroke:#ff711e;stroke-width:0.0208333;stroke-linecap:round;stroke-linejoin:bevel;stroke-dasharray:none;stroke-dashoffset:0;stroke-opacity:1"
         d="M 6.0580168,4.3655422 7.686354,2.9992052 A 0.12629537,0.12629537 80.000001 0 0 7.6483684,2.7837785 L 4.7870147,1.7423309 a 0.37888613,0.37888613 170 0 0 -0.37313,0.065793 L 2.7855476,3.1744607 a 0.12629537,0.12629537 80.000002 0 0 0.037986,0.2154267 l 2.8613536,1.0414477 a 0.37888611,0.37888611 170 0 0 0.37313,-0.065793 z"
         id="path665"
         inkscape:path-effect="#path-effect665"
         inkscape:original-d="M 5.8904446,4.506152 7.8539262,2.8585954 4.5814569,1.667514 2.6179754,3.3150705 Z" /><path
         style="fill:#ffffff;stroke:#ff711e;stroke-width:0.0208333;stroke-linecap:round;stroke-linejoin:bevel;stroke-dasharray:none;stroke-dashoffset:0;stroke-opacity:1"
         d="M 6.0580168,4.3655422 7.686354,2.9992052 A 0.12629537,0.12629537 80.000001 0 0 7.6483684,2.7837785 L 4.7870147,1.7423309 a 0.37888613,0.37888613 170 0 0 -0.37313,0.065793 L 2.7855476,3.1744607 a 0.12629537,0.12629537 80.000002 0 0 0.037986,0.2154267 l 2.8613536,1.0414477 a 0.37888611,0.37888611 170 0 0 0.37313,-0.065793 z"
         id="path665-2"
         inkscape:path-effect="#path-effect665-8"
         inkscape:original-d="M 5.8904446,4.506152 7.8539262,2.8585954 4.5814569,1.667514 2.6179754,3.3150705 Z"
         transform="translate(0,-0.06249999)" /></g><path
       style="fill:#ff711e;fill-opacity:1;stroke:#ff711e;stroke-width:0.0208333;stroke-linecap:round;stroke-linejoin:bevel;stroke-dasharray:none;stroke-dashoffset:0;stroke-opacity:1"
       d="M 2.8734056,4.6755428 2.3625451,5.1042057 A 0.16237978,0.16237978 170 0 1 2.2026322,5.1324026 L 1.3970839,4.839207 a 0.05412658,0.05412658 80.000003 0 1 -0.01628,-0.092326 L 1.8916649,4.3182184 a 0.16237978,0.16237978 170 0 1 0.1599129,-0.028197 l 0.8055483,0.2931956 a 0.05412658,0.05412658 80.000003 0 1 0.01628,0.092326 z"
       id="path666"
       inkscape:path-effect="#path-effect666"
       inkscape:original-d="M 2.9452223,4.6152815 2.2907284,5.164467 1.3089877,4.8071426 1.9634816,4.2579571 Z"
       transform="translate(0.06249999,0.89583331)" /><path
       style="fill:#ffffff;fill-opacity:1;stroke:#ff711e;stroke-width:0.0208333;stroke-linecap:round;stroke-linejoin:bevel;stroke-dasharray:none;stroke-dashoffset:0;stroke-opacity:1"
       d="M 2.8734056,4.6755428 2.3625451,5.1042057 A 0.16237978,0.16237978 170 0 1 2.2026322,5.1324026 L 1.3970839,4.839207 a 0.05412658,0.05412658 80.000003 0 1 -0.01628,-0.092326 L 1.8916649,4.3182184 a 0.16237978,0.16237978 170 0 1 0.1599129,-0.028197 l 0.8055483,0.2931956 a 0.05412658,0.05412658 80.000003 0 1 0.01628,0.092326 z"
       id="path666-3"
       inkscape:path-effect="#path-effect666-8"
       inkscape:original-d="M 2.9452223,4.6152815 2.2907284,5.164467 1.3089877,4.8071426 1.9634816,4.2579571 Z"
       transform="translate(0.06249999,0.85416665)" /><g
       id="g674"
       transform="translate(0.06249999,0.89583331)"><path
         id="path669"
         style="fill:none;stroke:#ff711e;stroke-width:0.0208333;stroke-linecap:round;stroke-linejoin:bevel;stroke-dasharray:none"
         d="m 0.4258518,2.8330107 c -0.0243578,0.00179 -0.046985,0.00978 -0.066565,0.023762 -0.004683,0.00334 -0.0118338,0.00936 -0.0159406,0.01339 -0.0316384,0.031022 -0.0500649,0.078827 -0.0520669,0.1352552 -2.027e-4,0.00571 -1.9986e-4,0.015015 -5.47e-6,0.020764 0.004368,0.1292015 0.0891413,0.2627163 0.1948691,0.3071891 0.005275,0.00222 0.0140201,0.00541 0.0195185,0.00711 0.0541084,0.016633 0.1027134,0.00594 0.13784255,-0.025384 0.004324,-0.00385 0.0119403,-0.00568 0.0173461,-0.00371 l 0.0838581,0.030532 c 0.005406,0.00197 0.0121103,0.00761 0.0151207,0.012512 0.0352228,0.057359 0.0841289,0.103846 0.13857212,0.1267301 0.00525,0.00221 0.0139731,0.0054 0.0194715,0.00709 0.0532095,0.016357 0.10109316,0.00629 0.13607646,-0.023829 0.00439,-0.00378 0.012059,-0.00554 0.017465,-0.00358 l 0.089167,0.032447 c 0.00541,0.00197 0.012184,0.00756 0.015285,0.012411 0.034892,0.054543 0.082222,0.098569 0.1347143,0.120639 0.00526,0.00221 0.013985,0.0054 0.019484,0.00709 0.051261,0.015758 0.097582,0.00699 0.1321849,-0.020606 0.00452,-0.00361 0.012309,-0.00525 0.017715,-0.00328 l 0.091974,0.033465 c 0.00541,0.00197 0.012115,0.0076 0.015131,0.012504 0.035203,0.05719 0.083994,0.1035331 0.1383178,0.126369 0.00525,0.00221 0.013974,0.0054 0.019472,0.00709 0.1055895,0.032459 0.1902336,-0.039147 0.1946573,-0.1649912 2.023e-4,-0.00576 1.993e-4,-0.015091 1.7e-6,-0.02084 -0.00204,-0.059264 -0.021294,-0.1220565 -0.054322,-0.1770937 -0.00295,-0.00491 -0.00795,-0.012764 -0.011168,-0.017531 -0.035404,-0.052403 -0.081248,-0.092253 -0.1294027,-0.1125438 -0.00527,-0.00222 -0.014013,-0.00542 -0.019513,-0.0071 -0.046921,-0.014383 -0.091631,-0.00859 -0.1266143,0.016388 -0.00469,0.00335 -0.011848,0.00937 -0.015952,0.013401 -7.376e-4,7.245e-4 -0.00147,0.00146 -0.00219,0.0022 -0.00401,0.00412 -0.011372,0.00613 -0.016778,0.00416 l -0.06923,-0.025201 c -0.00541,-0.00197 -0.011871,-0.00774 -0.014588,-0.012808 -0.00298,-0.00556 -0.00609,-0.011045 -0.00934,-0.016461 -0.00296,-0.00493 -0.00797,-0.012803 -0.01119,-0.01757 -0.035404,-0.052405 -0.081249,-0.092271 -0.1294032,-0.112564 -0.00527,-0.00222 -0.014013,-0.00542 -0.019512,-0.0071 -0.046921,-0.014381 -0.091631,-0.00857 -0.1266143,0.016408 -0.00469,0.00335 -0.011846,0.00937 -0.015955,0.013398 -0.00181,0.00178 -0.00359,0.00361 -0.00531,0.0055 -0.00389,0.00424 -0.011135,0.00633 -0.016541,0.00437 l -0.066807,-0.024309 c -0.00541,-0.00197 -0.011943,-0.0077 -0.014747,-0.012722 -0.00199,-0.00356 -0.00403,-0.00709 -0.00613,-0.010584 -0.00296,-0.00493 -0.00797,-0.012803 -0.01119,-0.01757 -0.035403,-0.052405 -0.0812303,-0.092271 -0.12938292,-0.1125638 -0.00527,-0.00222 -0.0140127,-0.00542 -0.0195125,-0.0071 -0.0469236,-0.014381 -0.0916488,-0.00857 -0.12663501,0.016409 -0.004691,0.00335 -0.0118473,0.00937 -0.0159519,0.0134 -6.6932e-4,6.569e-4 -0.001333,0.00132 -0.00199,0.00199 -0.004022,0.00411 -0.0113893,0.00611 -0.0167952,0.00414 l -0.071346,-0.025974 c -0.005406,-0.00197 -0.0119742,-0.00768 -0.014819,-0.012685 -0.001492,-0.00262 -0.003014,-0.00523 -0.004567,-0.00782 -0.00296,-0.00493 -0.007971,-0.012802 -0.0111913,-0.017569 -0.0354042,-0.052405 -0.0812484,-0.092271 -0.12940313,-0.112564 -0.00527,-0.00222 -0.0140126,-0.00542 -0.0195123,-0.0071 -0.0133177,-0.00408 -0.0264568,-0.00654 -0.0392467,-0.00739 -0.005739,-3.827e-4 -0.0150798,-3.735e-4 -0.0208159,4.91e-5 z"
         inkscape:path-effect="#path-effect672"
         inkscape:original-d="m 0.43625895,2.8326213 c -0.0318806,5.72e-5 -0.0612124,0.01037 -0.0852051,0.030538 -0.038388,0.032276 -0.0599569,0.087167 -0.0599569,0.1526082 0,0.1362664 0.0916412,0.2801593 0.20469156,0.3213908 0.0620969,0.022643 0.11773312,0.0096 0.15527344,-0.029338 l 0.10343425,0.037659 c 0.0375066,0.06487 0.0923875,0.117155 0.15350341,0.139445 0.0611974,0.022315 0.11611459,0.00998 0.15362549,-0.027649 l 0.1087443,0.039571 c 0.03737,0.061991 0.090665,0.111685 0.1498209,0.1332601 0.059244,0.021603 0.1126051,0.010727 0.1499838,-0.024129 l 0.1115519,0.040588 c 0.037501,0.064698 0.092261,0.1168314 0.1532593,0.1390787 0.1130566,0.041225 0.2047119,-0.035826 0.2047119,-0.1720988 0,-0.065435 -0.021569,-0.1360587 -0.059957,-0.1963297 -0.038388,-0.060271 -0.090459,-0.1052433 -0.144755,-0.1250407 -0.054289,-0.019798 -0.1063465,-0.012799 -0.1447347,0.01947 -0.00606,0.00509 -0.011684,0.010754 -0.016886,0.016927 L 1.4845581,3.2962443 C 1.4786166,3.2844289 1.4720791,3.2728781 1.4649455,3.2616781 1.4265575,3.2014071 1.3744863,3.1564144 1.3201904,3.136617 1.2659014,3.116819 1.2138439,3.1238386 1.1754557,3.1561076 c -0.00719,0.00605 -0.013796,0.012873 -0.019775,0.020426 l -0.086385,-0.031433 c -0.00511,-0.00974 -0.010633,-0.019297 -0.016561,-0.028605 -0.038388,-0.060271 -0.0904388,-0.1052637 -0.14473473,-0.1250611 -0.054289,-0.019798 -0.10636684,-0.012778 -0.14475504,0.019491 -0.005986,0.00503 -0.0115536,0.010617 -0.0167033,0.016703 L 0.6556193,2.9945272 C 0.65092815,2.9857505 0.6459035,2.9771449 0.64054362,2.9687297 0.60215562,2.9084587 0.55008447,2.863466 0.49578857,2.8436686 0.4754302,2.8362444 0.45538734,2.8325869 0.43625895,2.8326213 Z"
         transform="translate(1.185529,-1.630182)" /><path
         style="fill:#ffffff;fill-opacity:1;stroke:#ff711e;stroke-width:0.0208333;stroke-linecap:round;stroke-linejoin:bevel;stroke-dasharray:none;stroke-dashoffset:0;stroke-opacity:1"
         d="M 1.5450359,1.2235256 0.4852425,2.113633 2.0362323,2.9948095 3.081141,2.1195868"
         id="path674"
         sodipodi:nodetypes="cccc" /><path
         id="path672"
         style="fill:#ff711e;fill-opacity:1;stroke:#ff711e;stroke-width:0.0104167;stroke-linecap:round;stroke-linejoin:bevel"
         d="m 0.4258518,2.8330107 c -0.0243578,0.00179 -0.046985,0.00978 -0.066565,0.023762 -0.004683,0.00334 -0.0118338,0.00936 -0.0159406,0.01339 -0.0316384,0.031022 -0.0500649,0.078827 -0.0520669,0.1352552 -2.027e-4,0.00571 -1.9986e-4,0.015015 -5.47e-6,0.020764 0.004368,0.1292015 0.0891413,0.2627163 0.1948691,0.3071891 0.005275,0.00222 0.0140201,0.00541 0.0195185,0.00711 0.0541084,0.016633 0.1027134,0.00594 0.13784255,-0.025384 0.004324,-0.00385 0.0119403,-0.00568 0.0173461,-0.00371 l 0.0838581,0.030532 c 0.005406,0.00197 0.0121103,0.00761 0.0151207,0.012512 0.0352228,0.057359 0.0841289,0.103846 0.13857212,0.1267301 0.00525,0.00221 0.0139731,0.0054 0.0194715,0.00709 0.0532095,0.016357 0.10109316,0.00629 0.13607646,-0.023829 0.00439,-0.00378 0.012059,-0.00554 0.017465,-0.00358 l 0.089167,0.032447 c 0.00541,0.00197 0.012184,0.00756 0.015285,0.012411 0.034892,0.054543 0.082222,0.098569 0.1347143,0.120639 0.00526,0.00221 0.013985,0.0054 0.019484,0.00709 0.051261,0.015758 0.097582,0.00699 0.1321849,-0.020606 0.00452,-0.00361 0.012309,-0.00525 0.017715,-0.00328 l 0.091974,0.033465 c 0.00541,0.00197 0.012115,0.0076 0.015131,0.012504 0.035203,0.05719 0.083994,0.1035331 0.1383178,0.126369 0.00525,0.00221 0.013974,0.0054 0.019472,0.00709 0.1055895,0.032459 0.1902336,-0.039147 0.1946573,-0.1649912 2.023e-4,-0.00576 1.993e-4,-0.015091 1.7e-6,-0.02084 -0.00204,-0.059264 -0.021294,-0.1220565 -0.054322,-0.1770937 -0.00295,-0.00491 -0.00795,-0.012764 -0.011168,-0.017531 -0.035404,-0.052403 -0.081248,-0.092253 -0.1294027,-0.1125438 -0.00527,-0.00222 -0.014013,-0.00542 -0.019513,-0.0071 -0.046921,-0.014383 -0.091631,-0.00859 -0.1266143,0.016388 -0.00469,0.00335 -0.011848,0.00937 -0.015952,0.013401 -7.376e-4,7.245e-4 -0.00147,0.00146 -0.00219,0.0022 -0.00401,0.00412 -0.011372,0.00613 -0.016778,0.00416 l -0.06923,-0.025201 c -0.00541,-0.00197 -0.011871,-0.00774 -0.014588,-0.012808 -0.00298,-0.00556 -0.00609,-0.011045 -0.00934,-0.016461 -0.00296,-0.00493 -0.00797,-0.012803 -0.01119,-0.01757 -0.035404,-0.052405 -0.081249,-0.092271 -0.1294032,-0.112564 -0.00527,-0.00222 -0.014013,-0.00542 -0.019512,-0.0071 -0.046921,-0.014381 -0.091631,-0.00857 -0.1266143,0.016408 -0.00469,0.00335 -0.011846,0.00937 -0.015955,0.013398 -0.00181,0.00178 -0.00359,0.00361 -0.00531,0.0055 -0.00389,0.00424 -0.011135,0.00633 -0.016541,0.00437 l -0.066807,-0.024309 c -0.00541,-0.00197 -0.011943,-0.0077 -0.014747,-0.012722 -0.00199,-0.00356 -0.00403,-0.00709 -0.00613,-0.010584 -0.00296,-0.00493 -0.00797,-0.012803 -0.01119,-0.01757 -0.035403,-0.052405 -0.0812303,-0.092271 -0.12938292,-0.1125638 -0.00527,-0.00222 -0.0140127,-0.00542 -0.0195125,-0.0071 -0.0469236,-0.014381 -0.0916488,-0.00857 -0.12663501,0.016409 -0.004691,0.00335 -0.0118473,0.00937 -0.0159519,0.0134 -6.6932e-4,6.569e-4 -0.001333,0.00132 -0.00199,0.00199 -0.004022,0.00411 -0.0113893,0.00611 -0.0167952,0.00414 l -0.071346,-0.025974 c -0.005406,-0.00197 -0.0119742,-0.00768 -0.014819,-0.012685 -0.001492,-0.00262 -0.003014,-0.00523 -0.004567,-0.00782 -0.00296,-0.00493 -0.007971,-0.012802 -0.0111913,-0.017569 -0.0354042,-0.052405 -0.0812484,-0.092271 -0.12940313,-0.112564 -0.00527,-0.00222 -0.0140126,-0.00542 -0.0195123,-0.0071 -0.0133177,-0.00408 -0.0264568,-0.00654 -0.0392467,-0.00739 -0.005739,-3.827e-4 -0.0150798,-3.735e-4 -0.0208159,4.91e-5 z"
         inkscape:path-effect="#path-effect674"
         inkscape:original-d="m 0.43625895,2.8326213 c -0.0318806,5.72e-5 -0.0612124,0.01037 -0.0852051,0.030538 -0.038388,0.032276 -0.0599569,0.087167 -0.0599569,0.1526082 0,0.1362664 0.0916412,0.2801593 0.20469156,0.3213908 0.0620969,0.022643 0.11773312,0.0096 0.15527344,-0.029338 l 0.10343425,0.037659 c 0.0375066,0.06487 0.0923875,0.117155 0.15350341,0.139445 0.0611974,0.022315 0.11611459,0.00998 0.15362549,-0.027649 l 0.1087443,0.039571 c 0.03737,0.061991 0.090665,0.111685 0.1498209,0.1332601 0.059244,0.021603 0.1126051,0.010727 0.1499838,-0.024129 l 0.1115519,0.040588 c 0.037501,0.064698 0.092261,0.1168314 0.1532593,0.1390787 0.1130566,0.041225 0.2047119,-0.035826 0.2047119,-0.1720988 0,-0.065435 -0.021569,-0.1360587 -0.059957,-0.1963297 -0.038388,-0.060271 -0.090459,-0.1052433 -0.144755,-0.1250407 -0.054289,-0.019798 -0.1063465,-0.012799 -0.1447347,0.01947 -0.00606,0.00509 -0.011684,0.010754 -0.016886,0.016927 L 1.4845581,3.2962443 C 1.4786166,3.2844289 1.4720791,3.2728781 1.4649455,3.2616781 1.4265575,3.2014071 1.3744863,3.1564144 1.3201904,3.136617 1.2659014,3.116819 1.2138439,3.1238386 1.1754557,3.1561076 c -0.00719,0.00605 -0.013796,0.012873 -0.019775,0.020426 l -0.086385,-0.031433 c -0.00511,-0.00974 -0.010633,-0.019297 -0.016561,-0.028605 -0.038388,-0.060271 -0.0904388,-0.1052637 -0.14473473,-0.1250611 -0.054289,-0.019798 -0.10636684,-0.012778 -0.14475504,0.019491 -0.005986,0.00503 -0.0115536,0.010617 -0.0167033,0.016703 L 0.6556193,2.9945272 C 0.65092815,2.9857505 0.6459035,2.9771449 0.64054362,2.9687297 0.60215562,2.9084587 0.55008447,2.863466 0.49578857,2.8436686 0.4754302,2.8362444 0.45538734,2.8325869 0.43625895,2.8326213 Z"
         transform="translate(0.14409783,-0.75651359)" /></g><g
       id="text4"
       style="font-weight:500;font-size:0.333333px;line-height:0.9;font-family:'Monaspace Krypton Frozen';-inkscape-font-specification:'Monaspace Krypton Frozen Medium';letter-spacing:-0.0146678px;word-spacing:0.00366694px;fill:#ff711e;stroke-width:0.0208333;stroke-linecap:round;stroke-linejoin:bevel"
       aria-label="Solar&#10;Panel"
       transform="matrix(0,-1,-1,0,11.151824,2.6313707)"><path
         style="font-family:'Chalet Seventy';-inkscape-font-specification:'Chalet Seventy Medium';text-align:center;text-anchor:middle"
         d="m -0.178533,6.17421 c 0.01053,0.02757 0.012822,0.05492 0.005852,0.08677 -0.00725,0.03392 -0.023261,0.06521 -0.05545,0.10357 -0.032674,0.03893 -0.041538,0.0617 -0.045679,0.08626 -0.002831,0.01776 -8.99e-4,0.03552 0.006539,0.0563 L -0.287307,6.531 C -0.294548,6.51172 -0.300697,6.48503 -0.295095,6.45219 -0.2884,6.41194 -0.272249,6.38005 -0.237425,6.33856 -0.20571,6.30077 -0.196501,6.27803 -0.192121,6.25319 -0.188963,6.23634 -0.191129,6.21886 -0.198324,6.19778 Z m -0.053361,0.0086 c 0.015965,0.04466 -7.75e-4,0.11389 -0.036553,0.15651 -0.035311,0.04207 -0.07656,0.0419 -0.09255,-0.00276 -0.016104,-0.04499 5.19e-4,-0.11367 0.035855,-0.15574 0.035803,-0.04262 0.07717,-0.043 0.093248,0.00199 z M -0.34142,6.31324 c 0.010402,0.02907 0.038988,0.02905 0.063564,-2.2e-4 0.025049,-0.02984 0.037032,-0.07814 0.026641,-0.1072 C -0.261718,6.17644 -0.290775,6.177 -0.315835,6.20684 -0.340423,6.23612 -0.351934,6.28387 -0.34142,6.31324 Z M -0.347181,6.18392 C -0.378463,6.22116 -0.404517,6.21593 -0.414438,6.1749 l 0.019111,-0.02274 c 0.006298,0.02045 0.017931,0.03106 0.039661,0.00519 l 0.131987,-0.1571 0.009187,0.02572 z m -0.0621,-0.23927 c 0.036318,-0.04319 0.077015,-0.04267 0.093008,0.00208 0.015659,0.04381 6.68e-4,0.1123 -0.036341,0.15634 C -0.389394,6.14684 -0.429715,6.1446 -0.44529,6.10109 -0.453298,6.07872 -0.451586,6.04828 -0.442588,6.0201 L -0.461711,6.04284 -0.470709,6.01771 Z M -0.40007,5.9704 C -0.4254,6.00053 -0.437049,6.0489 -0.42663,6.07802 -0.416102,6.10743 -0.387722,6.10773 -0.361926,6.07704 -0.336135,6.04634 -0.324383,5.9983 -0.334899,5.96889 -0.345197,5.94008 -0.374506,5.94 -0.40007,5.9704 Z M -0.406125,5.90681 -0.479269,5.99379 -0.48849,5.96804 -0.414859,5.88049 c 0.023658,-0.02813 0.02822,-0.06109 0.015214,-0.0889 l 0.018878,-0.02244 c 0.01862,0.03686 0.011916,0.09334 -0.025358,0.13766 z"
         id="path8" /><path
         style="font-family:'Chalet Seventy';-inkscape-font-specification:'Chalet Seventy Medium';text-align:center;text-anchor:middle"
         d="m -0.423937,6.55183 c 0.029849,-0.03556 0.065661,-0.03068 0.080224,0.00998 0.015435,0.04309 0.002023,0.10356 -0.031865,0.14396 L -0.486845,6.83843 -0.496166,6.81245 -0.434545,6.739 -0.452302,6.68949 C -0.46831,6.64485 -0.456898,6.59111 -0.423937,6.55184 Z m 0.009315,0.026 C -0.43516,6.6023 -0.443441,6.63529 -0.43237,6.66617 l 0.017643,0.0492 0.029841,-0.03557 C -0.361019,6.65135 -0.35319,6.61236 -0.363044,6.58485 -0.37312,6.55673 -0.395758,6.55535 -0.414621,6.57782 Z M -0.536574,6.45547 c 0.036336,-0.04326 0.077061,-0.04285 0.093071,0.00183 0.015677,0.04375 6.86e-4,0.11223 -0.036341,0.15634 C -0.516642,6.65749 -0.556991,6.65535 -0.572583,6.61191 -0.5806,6.58957 -0.578891,6.55914 -0.569893,6.53096 l -0.019132,0.02278 -0.009008,-0.0251 z m 0.009221,0.02571 C -0.552695,6.51135 -0.564345,6.55973 -0.553914,6.5888 -0.543375,6.61817 -0.514976,6.61839 -0.489167,6.58765 -0.463363,6.55691 -0.45161,6.50886 -0.462138,6.47949 -0.472447,6.45073 -0.501777,6.45072 -0.527353,6.48118 Z m -0.0129,-0.0921 C -0.521842,6.36716 -0.514053,6.33561 -0.522835,6.31111 -0.531508,6.28692 -0.550501,6.28723 -0.568917,6.30914 L -0.644523,6.39911 -0.65376,6.37337 -0.578863,6.28426 c 0.031095,-0.03699 0.061414,-0.0333 0.074916,0.00437 0.013498,0.03767 0.003277,0.09002 -0.027801,0.12702 L -0.606603,6.50476 -0.615833,6.47904 Z M -0.668033,6.1813 c -0.010736,0.0272 -0.012787,0.05195 -0.004756,0.07433 0.006491,0.01809 0.019705,0.0273 0.035778,0.02261 L -0.640473,6.10959 c 0.035374,-0.02893 0.06602,-0.0177 0.078327,0.01664 0.015708,0.04384 -7.32e-4,0.1141 -0.036377,0.15651 -0.036134,0.04298 -0.077138,0.04104 -0.093421,-0.00433 -0.013097,-0.03649 -0.007712,-0.08052 0.014228,-0.1241 z m 0.060406,0.07511 C -0.579394,6.22282 -0.572277,6.17413 -0.581287,6.149 -0.587661,6.13121 -0.602302,6.1237 -0.619223,6.12982 l 0.002891,0.13563 C -0.613478,6.26293 -0.61074,6.26011 -0.607627,6.25641 Z M -0.676952,6.12977 c -0.031375,0.0373 -0.057521,0.03206 -0.067493,-0.00905 l 0.019169,-0.02279 c 0.006328,0.0205 0.018005,0.03113 0.039799,0.00522 l 0.132379,-0.15735 0.009229,0.02577 z"
         id="path9" /></g><path
       style="font-weight:500;font-size:0.333333px;line-height:0.9;font-family:'Chalet Seventy';-inkscape-font-specification:'Chalet Seventy Medium';text-align:center;letter-spacing:-0.0146678px;word-spacing:0.00366694px;text-anchor:middle;fill:#ff711e;stroke-width:0.0208333;stroke-linecap:round;stroke-linejoin:bevel"
       d="m 1.470011,2.6788868 c 0.02217,-0.018427 0.02918,-0.037881 0.0154,-0.052604 0.02329,-0.00214 0.04592,-0.011276 0.06268,-0.025208 0.03182,-0.026443 0.02853,-0.05597 -0.00976,-0.069652 -0.03709,-0.013249 -0.09299,-8.3e-4 -0.12651,0.027014 l -0.14126,0.117339 0.07959,0.028493 c 0.03739,0.013388 0.08887,3.73e-4 0.11986,-0.025382 z m -0.03257,-0.111291 c 0.02017,-0.016757 0.05497,-0.025246 0.07788,-0.017058 0.02412,0.00862 0.0259,0.026135 0.00744,0.04148 -0.02131,0.017709 -0.04843,0.02017 -0.06712,0.013485 l -0.04462,-0.015955 z m 0.00723,0.102225 c -0.01933,0.016065 -0.04919,0.022954 -0.07,0.015506 l -0.05517,-0.019748 0.06822,-0.056674 0.05517,0.019735 c 0.02292,0.0082 0.02111,0.025118 0.00178,0.041181 z m 0.20575,0.055024 c 0.0432,-0.03593 0.0432,-0.07614 -8.8e-4,-0.091894 -0.04315,-0.015426 -0.1111,-5.41e-4 -0.15515,0.036072 -0.04378,0.036387 -0.04207,0.076224 7.9e-4,0.091566 0.02203,0.00789 0.05217,0.00616 0.08017,-0.00275 l -0.02275,0.018918 0.02476,0.00886 z m -0.02536,-0.00907 c -0.03013,0.025058 -0.07814,0.03662 -0.10682,0.026356 -0.02897,-0.010371 -0.02891,-0.038411 0.00179,-0.063931 0.03069,-0.025516 0.07838,-0.037178 0.10735,-0.026819 0.02838,0.010144 0.02809,0.039103 -0.00232,0.064394 z m 0.05542,0.08037 c -0.02046,-0.00598 -0.03054,-0.017358 -0.00467,-0.038883 l 0.06991,-0.058163 0.03535,0.012638 0.02301,-0.019149 -0.03534,-0.012634 0.03124,-0.025997 -0.02537,-0.00907 -0.12417,0.103293 c -0.03724,0.03098 -0.03236,0.056748 0.00787,0.066414 z m 0.07494,0.026823 c -0.02047,-0.00598 -0.03056,-0.017365 -0.00469,-0.038897 l 0.06992,-0.058182 0.03535,0.012643 0.02302,-0.019155 -0.03536,-0.01264 0.03125,-0.026005 -0.02538,-0.00907 -0.12418,0.103327 c -0.03724,0.03099 -0.03235,0.056768 0.0079,0.066439 z m 0.15485,0.027665 c -0.02704,0.010633 -0.05157,0.012688 -0.07364,0.00479 -0.01785,-0.00639 -0.02683,-0.019421 -0.02203,-0.035297 l 0.16693,0.00321 c 0.029,-0.034961 0.01819,-0.065205 -0.01568,-0.077313 -0.04324,-0.015456 -0.11297,8.61e-4 -0.15531,0.036106 -0.04292,0.035727 -0.04141,0.076208 0.00334,0.092229 0.03599,0.012886 0.07963,0.00752 0.12301,-0.014199 z m -0.07375,-0.059549 c 0.03353,-0.027916 0.0818,-0.035001 0.1066,-0.026136 0.01754,0.00627 0.02483,0.020718 0.0186,0.037431 l -0.13424,-0.00269 c 0.00252,-0.00282 0.00534,-0.00553 0.00904,-0.00861 z m 0.15972,0.040895 -0.08699,0.07246 0.02542,0.0091 0.08755,-0.072942 c 0.02814,-0.023437 0.06084,-0.027982 0.08825,-0.015137 l 0.02245,-0.018702 c -0.03632,-0.018391 -0.09235,-0.011704 -0.13668,0.025221 z m 0.25193,0.019365 -0.08866,0.073916 c -0.02189,0.018249 -0.05326,0.025992 -0.07718,0.017427 -0.02423,-0.00867 -0.02375,-0.027468 -0.00186,-0.04571 l 0.08866,-0.073891 -0.02543,-0.00909 -0.08867,0.073882 c -0.03695,0.030796 -0.03266,0.061126 0.00398,0.074245 0.01696,0.00607 0.0351,0.00647 0.05388,0.00201 l -0.0219,0.018254 c -0.02246,0.01873 -0.05327,0.026001 -0.0772,0.01743 -0.01999,-0.00716 -0.02332,-0.019538 -0.01313,-0.034526 l -0.02604,-0.00932 c -0.02409,0.027292 -0.01686,0.051576 0.01584,0.063293 0.03665,0.013131 0.08789,0.00436 0.12628,-0.027653 l 0.15719,-0.131055 z"
       id="text5"
       aria-label="Battery" /><path
       style="font-weight:500;font-size:0.333333px;line-height:0.9;font-family:'Chalet Seventy';-inkscape-font-specification:'Chalet Seventy Medium';text-align:center;letter-spacing:-0.0146678px;word-spacing:0.00366694px;text-anchor:middle;fill:#ff711e;stroke-width:0.0208333;stroke-linecap:round;stroke-linejoin:bevel"
       d="m 1.1649367,5.9007506 -0.02686,-0.00971 c -0.03898,0.017292 -0.08121,0.02181 -0.11197,0.010686 -0.04312,-0.015593 -0.04206,-0.058523 0.00169,-0.094869 0.04375,-0.036336 0.11531,-0.053756 0.15843,-0.038189 0.03408,0.012304 0.0396,0.035765 0.0262,0.060576 l 0.02685,0.0097 c 0.02588,-0.037348 0.01775,-0.07231 -0.0299,-0.089511 -0.05729,-0.020677 -0.15,0.00102 -0.20689,0.048277 -0.0572,0.047508 -0.05713,0.10279 1.6e-4,0.123512 0.04494,0.016255 0.10777,0.00793 0.16229,-0.020475 z m 0.17274,0.03173 c 0.0366,-0.030445 0.04058,-0.0597 0.00224,-0.073549 -0.01811,-0.00654 -0.04095,-0.00627 -0.06295,-5.75e-4 l 0.08031,-0.066778 -0.02535,-0.00915 -0.21273,0.176859 0.02535,0.00917 0.0901,-0.074916 c 0.02202,-0.018307 0.05611,-0.025771 0.07935,-0.017374 0.02536,0.00916 0.02175,0.027297 -0.00113,0.046323 l -0.08953,0.074467 0.02567,0.00928 z m 0.15859,0.075406 c 0.04346,-0.036183 0.04362,-0.076732 -5e-4,-0.092668 -0.04321,-0.015604 -0.11141,-6.7e-4 -0.15573,0.036201 -0.04405,0.036644 -0.04249,0.076818 4.1e-4,0.092338 0.02206,0.00798 0.05229,0.00627 0.0804,-0.00269 l -0.02288,0.019051 0.02479,0.00897 z m -0.02539,-0.00918 c -0.03032,0.025236 -0.07851,0.036841 -0.10722,0.026458 -0.02901,-0.01049 -0.02883,-0.038767 0.00206,-0.064467 0.03088,-0.025695 0.07875,-0.037403 0.10775,-0.026924 0.02841,0.010262 0.028,0.039464 -0.00259,0.064933 z m 0.06298,0.00603 -0.08752,0.072874 0.0254,0.00919 0.0881,-0.073358 c 0.0283,-0.023571 0.06108,-0.028115 0.08845,-0.015154 l 0.02259,-0.018809 c -0.03627,-0.018554 -0.09241,-0.011876 -0.13702,0.02526 z m 0.21929,0.095989 c 0.04346,-0.036225 0.04357,-0.076825 -6.3e-4,-0.092786 -0.04327,-0.015629 -0.11153,-6.84e-4 -0.15585,0.036229 -0.04405,0.036686 -0.04244,0.076911 5.3e-4,0.092455 0.0224,0.0081 0.05061,0.00702 0.07788,-0.00123 l -0.01401,0.011682 c -0.02661,0.022175 -0.07034,0.041241 -0.11059,0.026672 -0.0112,-0.00405 -0.03286,-0.015657 -0.02112,-0.037732 l -0.02723,-0.00985 c -0.02188,0.027983 -0.01174,0.053884 0.02488,0.067138 0.04813,0.017422 0.11227,0.00232 0.15949,-0.037026 z m -0.02544,-0.00919 c -0.03031,0.025264 -0.07855,0.036878 -0.1073,0.026479 -0.02905,-0.010506 -0.02891,-0.038819 0.00198,-0.064548 0.03088,-0.025724 0.07878,-0.037441 0.10784,-0.026946 0.02845,0.010278 0.02808,0.039517 -0.00252,0.065015 z m 0.14007,0.083791 c -0.02716,0.010696 -0.05177,0.012741 -0.07389,0.00474 -0.01787,-0.00646 -0.02684,-0.019627 -0.02197,-0.035639 l 0.16745,0.00344 c 0.02922,-0.035241 0.01849,-0.065768 -0.01545,-0.078025 -0.04332,-0.015645 -0.11333,7.37e-4 -0.15594,0.036248 -0.04318,0.035998 -0.04181,0.076844 0.00302,0.093062 0.03606,0.013043 0.07987,0.00768 0.12346,-0.014183 z m -0.07377,-0.06017 c 0.03374,-0.028127 0.0822,-0.03522 0.10704,-0.026246 0.01757,0.00635 0.02484,0.020933 0.01853,0.037789 l -0.13467,-0.00287 c 0.00254,-0.00284 0.00538,-0.00557 0.0091,-0.00867 z m 0.16009,0.041449 -0.08753,0.073009 0.02547,0.00921 0.08809,-0.073493 c 0.02831,-0.023615 0.06114,-0.028162 0.08859,-0.01517 l 0.02258,-0.018843 c -0.03637,-0.018599 -0.0926,-0.011918 -0.1372,0.025286 z"
       id="text6"
       aria-label="Charger" /><path
       style="font-weight:500;font-size:0.333333px;line-height:0.9;font-family:'Chalet Seventy';-inkscape-font-specification:'Chalet Seventy Medium';text-align:center;letter-spacing:-0.0146678px;word-spacing:0.00366694px;text-anchor:middle;fill:#ff711e;stroke-width:0.0208333;stroke-linecap:round;stroke-linejoin:bevel"
       d="m 4.5983928,6.8974048 c 0.03687,-0.03096 0.03569,-0.06707 -0.00469,-0.08165 -0.02569,-0.00927 -0.05879,-0.00682 -0.08872,0.00399 0.00639,-0.0193 -0.0027,-0.03699 -0.02838,-0.046258 -0.04034,-0.014561 -0.10123,-8.82e-4 -0.1381,0.030048 l -0.13671,0.11466 0.02597,0.00939 0.13671,-0.11467 c 0.02344,-0.019664 0.063,-0.029386 0.08898,-0.020007 0.02629,0.00949 0.02554,0.033237 0.0021,0.052907 l -0.1367,0.11472 0.02598,0.0094 0.13671,-0.11474 c 0.02344,-0.01967 0.06271,-0.0295 0.08901,-0.02001 0.026,0.00939 0.02558,0.03326 0.00214,0.05294 l -0.13671,0.11478 0.0257,0.00929 z m 0.0904,-0.00683 0.0183,-0.01536 c 0.00657,-0.00552 0.0059,-0.01194 -0.00145,-0.01459 -0.00704,-0.00254 -0.018,-3.2e-4 -0.02457,0.0052 l -0.01829,0.01536 z m -0.02229,0.01873 -0.02602,-0.0094 -0.14728,0.12369 0.02602,0.00941 z m 0.07091,0.1476 -0.02788,-0.01008 c -0.02459,0.01036 -0.05084,0.0129 -0.07167,0.00537 -0.0291,-0.01052 -0.02895,-0.03935 7.9e-4,-0.06434 0.02974,-0.02498 0.07821,-0.03701 0.10731,-0.0265 0.02052,0.00742 0.02675,0.02169 0.01962,0.03836 l 0.02789,0.01007 c 0.01901,-0.02887 0.01087,-0.05516 -0.02436,-0.06788 -0.04348,-0.01571 -0.11388,7.6e-4 -0.15648,0.03655 -0.04262,0.0358 -0.04143,0.07748 0.00205,0.09321 0.03523,0.01274 0.08257,0.00648 0.12273,-0.01476 z m 0.05769,-0.02934 -0.08752,0.07357 0.02574,0.00931 0.0881,-0.07406 c 0.02831,-0.0238 0.06134,-0.02836 0.08912,-0.01523 l 0.02258,-0.01899 c -0.03681,-0.01879 -0.09341,-0.0121 -0.13802,0.0254 z m 0.22076,0.00345 c -0.04478,-0.01617 -0.11431,6.4e-4 -0.1572,0.03671 -0.04233,0.03559 -0.0423,0.07724 0.00248,0.09343 0.0451,0.01632 0.11408,-3.8e-4 0.15641,-0.036 0.0429,-0.03609 0.04341,-0.07786 -0.00169,-0.09414 z m -0.13126,0.11041 c -0.02914,-0.01054 -0.02903,-0.0394 4.3e-4,-0.06417 0.03003,-0.02525 0.07853,-0.03729 0.10767,-0.02676 0.02945,0.01063 0.0288,0.03997 -0.00123,0.06523 -0.02946,0.02479 -0.07742,0.03635 -0.10687,0.0257 z"
       id="text1"
       aria-label="Micro" /></g></svg>
